<?xml version="1.0" encoding="UTF-8"?>
<svg version="1.1" xmlns="http://www.w3.org/2000/svg" width="500" height="500">
<path d="M0 0 C1.73734147 3.80043446 2 5.59714577 2 10 C6.95 10.495 6.95 10.495 12 11 C12 11.66 12 12.32 12 13 C14.31 13.66 16.62 14.32 19 15 C19.33 14.01 19.66 13.02 20 12 C21.77734375 11.19921875 21.77734375 11.19921875 23.9375 10.6875 C24.64777344 10.50574219 25.35804688 10.32398438 26.08984375 10.13671875 C26.72019531 10.09160156 27.35054688 10.04648438 28 10 C28.99 10.99 28.99 10.99 30 12 C34.7072136 13.20697785 39.34551344 13.02155602 44.1640625 12.96875 C48.16443367 13.01283122 52.03538176 13.48005007 56 14 C56.01417969 14.9178125 56.02835937 15.835625 56.04296875 16.78125 C56.30687297 23.57143424 56.57049612 28.6088078 60.66015625 34.1328125 C63.5803332 38.20233024 65.66104319 43.00862872 66.5 47.9375 C66.665 48.618125 66.83 49.29875 67 50 C68.96672915 51.1500831 68.96672915 51.1500831 71 52 C71.33 52.99 71.66 53.98 72 55 C72.9590625 55.185625 72.9590625 55.185625 73.9375 55.375 C74.9584375 55.684375 74.9584375 55.684375 76 56 C76.99 58.475 76.99 58.475 78 61 C81.96 61 85.92 61 90 61 C90.33 60.01 90.66 59.02 91 58 C92.32 58.33 93.64 58.66 95 59 C95 61.31 95 63.62 95 66 C94.34 66 93.68 66 93 66 C92.9175 66.66 92.835 67.32 92.75 68 C91.03815232 74.84739073 87.74830595 80.75561628 82 85 C79.09460656 85.56923321 77.04163941 85.76901784 74.15869141 85.68115234 C73.01620941 85.68246658 73.01620941 85.68246658 71.85064697 85.68380737 C69.34988412 85.67964936 66.85185263 85.63308883 64.3515625 85.5859375 C62.61137355 85.57473884 60.8711656 85.56620182 59.13095093 85.56021118 C54.56348921 85.53736522 49.99718282 85.47847967 45.43017578 85.4119873 C40.76480741 85.35047266 36.09925128 85.32317665 31.43359375 85.29296875 C22.28855649 85.22873137 13.14437453 85.12640407 4 85 C6.44038613 87.55489105 8.92115427 89.25254702 12 91 C11.625 93.9375 11.625 93.9375 11 97 C10.01 97.495 10.01 97.495 9 98 C9.4846875 98.40476562 9.969375 98.80953125 10.46875 99.2265625 C12.82775539 101.95867588 12.53904489 104.28529268 12.4140625 107.7734375 C11.73065916 111.44834224 9.99603782 112.91579978 7 115 C2.50808521 116.46248389 -1.65182964 115.80417776 -6.25390625 115.2578125 C-10.83977773 114.82727549 -15.39700369 114.94098723 -20 115 C-20.33 111.04 -20.66 107.08 -21 103 C-21.66 103 -22.32 103 -23 103 C-23 106.96 -23 110.92 -23 115 C-26.63 115 -30.26 115 -34 115 C-33.67 109.72 -33.34 104.44 -33 99 C-33.99 99 -34.98 99 -36 99 C-35.91621094 99.72445312 -35.83242187 100.44890625 -35.74609375 101.1953125 C-35.20472195 106.3349182 -34.76278202 110.91365942 -36 116 C-33.5200301 116.82665663 -32.09822907 117.01964581 -29.5 116.5 C-26.83826337 115.96765267 -25.56892437 116.33705178 -23 117 C-20.81296615 116.62092718 -20.81296615 116.62092718 -19 116 C-19 116.66 -19 117.32 -19 118 C-17.35 118 -15.7 118 -14 118 C-14.33 120.97 -14.66 123.94 -15 127 C-18.14624993 127.26218749 -19.61837017 127.24754367 -22.3125 125.5 C-22.869375 125.005 -23.42625 124.51 -24 124 C-24 124.66 -24 125.32 -24 126 C-24.66 126 -25.32 126 -26 126 C-26 125.34 -26 124.68 -26 124 C-27.60681641 124.01740234 -27.60681641 124.01740234 -29.24609375 124.03515625 C-30.64322743 124.04453299 -32.04036299 124.05363331 -33.4375 124.0625 C-34.14455078 124.07087891 -34.85160156 124.07925781 -35.58007812 124.08789062 C-37.38693559 124.09653588 -39.19387603 124.05220011 -41 124 C-41.495 123.505 -41.495 123.505 -42 123 C-42 120.36 -42 117.72 -42 115 C-49.26 115 -56.52 115 -64 115 C-58.44189396 116.40723561 -58.44189396 116.40723561 -55 115 C-54.34 115.66 -53.68 116.32 -53 117 C-51.68 117 -50.36 117 -49 117 C-47.32774271 117.30404678 -45.65919896 117.63128912 -44 118 C-44 119.98 -44 121.96 -44 124 C-47.37445728 124.19825948 -50.74956722 124.38167324 -54.125 124.5625 C-55.55199219 124.64661133 -55.55199219 124.64661133 -57.0078125 124.73242188 C-61.83790076 124.98398897 -66.24190617 125.08138496 -71 124 C-70.4140625 117.84765625 -70.4140625 117.84765625 -70 116 C-69.01 115.505 -69.01 115.505 -68 115 C-68.66 114.67 -69.32 114.34 -70 114 C-70 111.69 -70 109.38 -70 107 C-69.34 107 -68.68 107 -68 107 C-68.20625 106.484375 -68.4125 105.96875 -68.625 105.4375 C-69.16385567 101.93493817 -68.05045537 99.37251461 -67 96 C-66.2901784 93.0082687 -65.64747179 90.00611904 -65 87 C-60.38 87 -55.76 87 -51 87 C-50.79503906 88.27617187 -50.59007812 89.55234375 -50.37890625 90.8671875 C-50.10694185 92.53648621 -49.83479709 94.20575553 -49.5625 95.875 C-49.42779297 96.71675781 -49.29308594 97.55851562 -49.15429688 98.42578125 C-48.95610352 99.63427734 -48.95610352 99.63427734 -48.75390625 100.8671875 C-48.63345947 101.61081543 -48.5130127 102.35444336 -48.38891602 103.12060547 C-48.06752895 105.07884647 -48.06752895 105.07884647 -47 107 C-47.03480469 106.13117188 -47.06960937 105.26234375 -47.10546875 104.3671875 C-47.38 92.68 -47.38 92.68 -44 88 C-40.78548731 86.39274365 -37.56387464 86.94251815 -34 87 C-34 88.98 -34 90.96 -34 93 C-29.38 93 -24.76 93 -20 93 C-19.67 91.35 -19.34 89.7 -19 88 C-18 87 -18 87 -15.0625 86.8125 C-12 87 -12 87 -10 89 C-9.375 91.625 -9.375 91.625 -9 94 C-8.9071875 92.8553125 -8.9071875 92.8553125 -8.8125 91.6875 C-8 89 -8 89 -5.4375 87.1875 C-4.633125 86.795625 -3.82875 86.40375 -3 86 C-3.45375 85.5875 -3.9075 85.175 -4.375 84.75 C-6.05950374 82.93591905 -6.99265971 81.24714373 -8 79 C-9.175625 79.0928125 -9.175625 79.0928125 -10.375 79.1875 C-11.24125 79.125625 -12.1075 79.06375 -13 79 C-13.66 78.01 -14.32 77.02 -15 76 C-18.56769552 75.26393501 -18.56769552 75.26393501 -22 75 C-22 75.66 -22 76.32 -22 77 C-29.83255828 79.19861285 -37.89924255 80.05158347 -46 79 C-49.28515625 77.0625 -49.28515625 77.0625 -52 75 C-53.36125 74.319375 -53.36125 74.319375 -54.75 73.625 C-57 72 -57 72 -58 68.9375 C-58.33 67.968125 -58.66 66.99875 -59 66 C-59.804375 65.71125 -60.60875 65.4225 -61.4375 65.125 C-64.47562608 63.79118855 -64.67222242 63.16395882 -65.875 60.1875 C-66.96922249 56.80647544 -67.24497148 54.42367158 -66 51 C-65.505 50.505 -65.505 50.505 -65 50 C-64.76924918 48.65252916 -64.58846937 47.29622435 -64.4375 45.9375 C-64.2209375 43.9884375 -64.2209375 43.9884375 -64 42 C-64.66 42 -65.32 42 -66 42 C-65.86648595 33.85564318 -63.20815939 28.27540517 -58 22 C-56.00787329 20.98440599 -54.0088485 19.98210371 -52 19 C-50.81031244 16.74900844 -49.91993091 14.45468639 -49 12.08203125 C-47.62570144 9.2206987 -45.79964096 8.36392765 -43 7 C-42.57074219 6.31808594 -42.14148438 5.63617188 -41.69921875 4.93359375 C-40 3 -40 3 -37.3984375 2.6796875 C-35.90183594 2.77636719 -35.90183594 2.77636719 -34.375 2.875 C-29.63750588 3.04032771 -25.71291274 2.67123776 -21.140625 1.51171875 C-14.19011597 -0.14980804 -7.1062402 -0.13352017 0 0 Z M16 27 C16 27.33 16 27.66 16 28 C17.98 28 19.96 28 22 28 C22 27.67 22 27.34 22 27 C20.02 27 18.04 27 16 27 Z M18 32 C17.54625 32.639375 17.0925 33.27875 16.625 33.9375 C15 36 15 36 12 37 C11.67 36.01 11.34 35.02 11 34 C9.68 34.33 8.36 34.66 7 35 C7 36.98 7 38.96 7 41 C5.35 41 3.7 41 2 41 C1.67 41.66 1.34 42.32 1 43 C1.66 43 2.32 43 3 43 C2.67 45.31 2.34 47.62 2 50 C1.01 50.33 0.02 50.66 -1 51 C-1 51.66 -1 52.32 -1 53 C-0.01 53.33 0.98 53.66 2 54 C2.8125 55.8125 2.8125 55.8125 3 58 C2.0625 60.25 2.0625 60.25 1 62 C3.49092811 63.24546405 4.41080733 62.7767578 7 62 C7 63.98 7 65.96 7 68 C8.32 68.33 9.64 68.66 11 69 C11 68.34 11 67.68 11 67 C12.98 67.33 14.96 67.66 17 68 C17.33 68.99 17.66 69.98 18 71 C18.99 70.505 18.99 70.505 20 70 C20 69.34 20 68.68 20 68 C23.34252724 67.92572162 25.8035914 67.93453047 29 69 C29 67.35 29 65.7 29 64 C30.98 64 32.96 64 35 64 C35.33 62.35 35.66 60.7 36 59 C35.01 59 34.02 59 33 59 C33.66 57.02 34.32 55.04 35 53 C35.99 53.33 36.98 53.66 38 54 C38 52.68 38 51.36 38 50 C37.01 50 36.02 50 35 50 C34.3125 48.1875 34.3125 48.1875 34 46 C35.4375 44.25 35.4375 44.25 37 43 C36.01 42.01 35.02 41.02 34 40 C34 40.66 34 41.32 34 42 C32.68 42 31.36 42 30 42 C30 39.69 30 37.38 30 35 C29.01 34.67 28.02 34.34 27 34 C26.67 34.99 26.34 35.98 26 37 C24.68 37 23.36 37 22 37 C22 36.34 22 35.68 22 35 C21.34 35 20.68 35 20 35 C19.67 34.01 19.34 33.02 19 32 C18.67 32 18.34 32 18 32 Z M0 35 C1 37 1 37 1 37 Z M41 44 C42 46 42 46 42 46 Z M42 48 C42 50.31 42 52.62 42 55 C42.33 55 42.66 55 43 55 C43 52.69 43 50.38 43 48 C42.67 48 42.34 48 42 48 Z M-6 55 C-5 58 -5 58 -5 58 Z M41 57 C42 59 42 59 42 59 Z M-5 59 C-5 59.99 -5 60.98 -5 62 C-4.34 62 -3.68 62 -3 62 C-3.33 61.01 -3.66 60.02 -4 59 C-4.33 59 -4.66 59 -5 59 Z M7 73 C7.33 73.66 7.66 74.32 8 75 C8.66 75 9.32 75 10 75 C10 74.34 10 73.68 10 73 C9.01 73 8.02 73 7 73 Z M-10 97 C-10 99.31 -10 101.62 -10 104 C-8.35 104 -6.7 104 -5 104 C-5.45375 103.5875 -5.9075 103.175 -6.375 102.75 C-8.05950374 100.93591905 -8.99265971 99.24714373 -10 97 Z " fill="#D4AA40" transform="translate(237,151)"/>
<path d="M0 0 C1.73734147 3.80043446 2 5.59714577 2 10 C5.3 10.33 8.6 10.66 12 11 C12 11.66 12 12.32 12 13 C14.31 13.66 16.62 14.32 19 15 C19.33 14.01 19.66 13.02 20 12 C21.77734375 11.19921875 21.77734375 11.19921875 23.9375 10.6875 C24.64777344 10.50574219 25.35804688 10.32398438 26.08984375 10.13671875 C26.72019531 10.09160156 27.35054688 10.04648438 28 10 C28.66 10.66 29.32 11.32 30 12 C34.7072136 13.20697785 39.34551344 13.02155602 44.1640625 12.96875 C48.16443367 13.01283122 52.03538176 13.48005007 56 14 C56.01417969 14.9178125 56.02835937 15.835625 56.04296875 16.78125 C56.30687297 23.57143424 56.57049612 28.6088078 60.66015625 34.1328125 C63.5803332 38.20233024 65.66104319 43.00862872 66.5 47.9375 C66.665 48.618125 66.83 49.29875 67 50 C68.96672915 51.1500831 68.96672915 51.1500831 71 52 C71.33 52.99 71.66 53.98 72 55 C72.9590625 55.185625 72.9590625 55.185625 73.9375 55.375 C74.618125 55.58125 75.29875 55.7875 76 56 C76.99 58.475 76.99 58.475 78 61 C81.96 61 85.92 61 90 61 C90.33 60.01 90.66 59.02 91 58 C92.98 58.495 92.98 58.495 95 59 C95 61.31 95 63.62 95 66 C94.34 66 93.68 66 93 66 C92.87625 66.7425 92.7525 67.485 92.625 68.25 C92.04513299 70.80141485 91.26291261 72.7267573 90 75 C88.68 75 87.36 75 86 75 C85.896875 75.763125 85.79375 76.52625 85.6875 77.3125 C84.93412462 80.25751284 84.44706902 81.25209356 82 83 C79.3125 83.6875 79.3125 83.6875 77 84 C77 83.34 77 82.68 77 82 C76.34 82 75.68 82 75 82 C75 81.34 75 80.68 75 80 C72.31374546 79.49236135 69.62631617 78.99372803 66.9375 78.5 C66.18533203 78.35691406 65.43316406 78.21382813 64.65820312 78.06640625 C60.02259825 77.223569 55.7110385 76.84984738 51 77 C51 78.32 51 79.64 51 81 C49.02 80.505 49.02 80.505 47 80 C47 79.67 47 79.34 47 79 C43.7 78.67 40.4 78.34 37 78 C37.33 76.02 37.66 74.04 38 72 C38.99 72 39.98 72 41 72 C41.37125 71.0409375 41.37125 71.0409375 41.75 70.0625 C43 68 43 68 45.125 67.25 C45.74375 67.1675 46.3625 67.085 47 67 C47 66.01 47 65.02 47 64 C45.02 63.505 45.02 63.505 43 63 C42.62875 64.1446875 42.62875 64.1446875 42.25 65.3125 C40.89004442 68.2364045 39.68414174 69.30004356 37 71 C37 69.68 37 68.36 37 67 C36.34 67 35.68 67 35 67 C35 66.34 35 65.68 35 65 C33.02 65.495 33.02 65.495 31 66 C30.67 65.01 30.34 64.02 30 63 C31.65 63 33.3 63 35 63 C35.33 61.68 35.66 60.36 36 59 C35.01 59 34.02 59 33 59 C33.50603992 56.83125748 33.99983813 55.00032373 35 53 C35.99 53 36.98 53 38 53 C38 52.34 38 51.68 38 51 C36.515 50.505 36.515 50.505 35 50 C35 49.01 35 48.02 35 47 C34.01 46.505 34.01 46.505 33 46 C33.99 45.01 34.98 44.02 36 43 C35.67 42.34 35.34 41.68 35 41 C32.525 41.495 32.525 41.495 30 42 C28.875 37.25 28.875 37.25 30 35 C29.01 35 28.02 35 27 35 C26.505 35.99 26.505 35.99 26 37 C24.68 37 23.36 37 22 37 C22 36.34 22 35.68 22 35 C21.34 35 20.68 35 20 35 C19.67 34.34 19.34 33.68 19 33 C18.401875 33.66 17.80375 34.32 17.1875 35 C15 37 15 37 12 37 C11.505 35.02 11.505 35.02 11 33 C9.04105639 33.11306697 9.04105639 33.11306697 7 34 C6.71125 34.825 6.4225 35.65 6.125 36.5 C5.75375 37.325 5.3825 38.15 5 39 C1.875 39.8125 1.875 39.8125 -1 40 C-0.34 38.35 0.32 36.7 1 35 C1.66 35 2.32 35 3 35 C3 34.34 3 33.68 3 33 C3.99 33 4.98 33 6 33 C6.33 32.01 6.66 31.02 7 30 C4.525 29.01 4.525 29.01 2 28 C2 26.68 2 25.36 2 24 C4.33294775 23.95758277 6.66702567 23.95907063 9 24 C9.33 24.33 9.66 24.66 10 25 C11.61949011 22.42786866 12.04408751 21.32330841 11.625 18.25 C11.41875 17.5075 11.2125 16.765 11 16 C9.783125 16.020625 8.56625 16.04125 7.3125 16.0625 C4.06993983 16.0682289 1.16930045 15.72441153 -2 15 C-2.99 15 -3.98 15 -5 15 C-5 11.37 -5 7.74 -5 4 C-6.32 4.33 -7.64 4.66 -9 5 C-9.33 5.66 -9.66 6.32 -10 7 C-11.65 7 -13.3 7 -15 7 C-15 6.34 -15 5.68 -15 5 C-16.98 5 -18.96 5 -21 5 C-21 5.66 -21 6.32 -21 7 C-23.64 7 -26.28 7 -29 7 C-28.67 5.68 -28.34 4.36 -28 3 C-18.5948996 0.70986917 -9.67720706 -0.18182644 0 0 Z M16 27 C16 27.33 16 27.66 16 28 C17.98 28 19.96 28 22 28 C22 27.67 22 27.34 22 27 C20.02 27 18.04 27 16 27 Z M41 44 C42 46 42 46 42 46 Z M42 48 C42 50.31 42 52.62 42 55 C42.33 55 42.66 55 43 55 C43 52.69 43 50.38 43 48 C42.67 48 42.34 48 42 48 Z M41 57 C42 59 42 59 42 59 Z " fill="#E8DD69" transform="translate(237,151)"/>
<path d="M0 0 C4.5558115 -0.31062351 6.56662512 0.00964123 10 3 C11.65661761 4.01656081 13.32111559 5.02065076 15 6 C14.625 8.9375 14.625 8.9375 14 12 C13.34 12.33 12.68 12.66 12 13 C12.4846875 13.40476563 12.969375 13.80953125 13.46875 14.2265625 C15.82775539 16.95867588 15.53904489 19.28529268 15.4140625 22.7734375 C14.73065916 26.44834224 12.99603782 27.91579978 10 30 C5.50808521 31.46248389 1.34817036 30.80417776 -3.25390625 30.2578125 C-7.83977773 29.82727549 -12.39700369 29.94098723 -17 30 C-17.495 24.06 -17.495 24.06 -18 18 C-18.66 18 -19.32 18 -20 18 C-20 21.96 -20 25.92 -20 30 C-23.63 30 -27.26 30 -31 30 C-30.67 24.72 -30.34 19.44 -30 14 C-30.99 14 -31.98 14 -33 14 C-32.91621094 14.72445312 -32.83242187 15.44890625 -32.74609375 16.1953125 C-32.20472195 21.3349182 -31.76278202 25.91365942 -33 31 C-30.5200301 31.82665663 -29.09822907 32.01964581 -26.5 31.5 C-23.83826337 30.96765267 -22.56892437 31.33705178 -20 32 C-17.81296615 31.62092718 -17.81296615 31.62092718 -16 31 C-16 31.66 -16 32.32 -16 33 C-14.35 33 -12.7 33 -11 33 C-11.33 35.97 -11.66 38.94 -12 42 C-15.14624993 42.26218749 -16.61837017 42.24754367 -19.3125 40.5 C-19.869375 40.005 -20.42625 39.51 -21 39 C-21 39.66 -21 40.32 -21 41 C-21.66 41 -22.32 41 -23 41 C-23 40.34 -23 39.68 -23 39 C-24.60681641 39.01740234 -24.60681641 39.01740234 -26.24609375 39.03515625 C-27.64322743 39.04453299 -29.04036299 39.05363331 -30.4375 39.0625 C-31.14455078 39.07087891 -31.85160156 39.07925781 -32.58007812 39.08789062 C-34.38693559 39.09653588 -36.19387603 39.05220011 -38 39 C-38.495 38.505 -38.495 38.505 -39 38 C-39 35.36 -39 32.72 -39 30 C-46.26 30 -53.52 30 -61 30 C-55.44189396 31.40723561 -55.44189396 31.40723561 -52 30 C-51.34 30.66 -50.68 31.32 -50 32 C-48.68 32 -47.36 32 -46 32 C-44.32774271 32.30404678 -42.65919896 32.63128912 -41 33 C-41 34.98 -41 36.96 -41 39 C-44.37445728 39.19825948 -47.74956722 39.38167324 -51.125 39.5625 C-52.55199219 39.64661133 -52.55199219 39.64661133 -54.0078125 39.73242188 C-58.83790076 39.98398897 -63.24190617 40.08138496 -68 39 C-67.4140625 32.84765625 -67.4140625 32.84765625 -67 31 C-66.34 30.67 -65.68 30.34 -65 30 C-65.66 29.67 -66.32 29.34 -67 29 C-67 26.69 -67 24.38 -67 22 C-66.34 22 -65.68 22 -65 22 C-65.20625 21.484375 -65.4125 20.96875 -65.625 20.4375 C-66.16385567 16.93493817 -65.05045537 14.37251461 -64 11 C-63.2901784 8.0082687 -62.64747179 5.00611904 -62 2 C-57.38 2 -52.76 2 -48 2 C-47.79503906 3.27617187 -47.59007812 4.55234375 -47.37890625 5.8671875 C-47.10694185 7.53648621 -46.83479709 9.20575553 -46.5625 10.875 C-46.42779297 11.71675781 -46.29308594 12.55851563 -46.15429688 13.42578125 C-45.95610352 14.63427734 -45.95610352 14.63427734 -45.75390625 15.8671875 C-45.63345947 16.61081543 -45.5130127 17.35444336 -45.38891602 18.12060547 C-45.06752895 20.07884647 -45.06752895 20.07884647 -44 22 C-44.03480469 21.13117188 -44.06960937 20.26234375 -44.10546875 19.3671875 C-44.38 7.68 -44.38 7.68 -41 3 C-37.78548731 1.39274365 -34.56387464 1.94251815 -31 2 C-31 3.98 -31 5.96 -31 8 C-26.38 8 -21.76 8 -17 8 C-16.67 6.35 -16.34 4.7 -16 3 C-15 2 -15 2 -12.0625 1.8125 C-9 2 -9 2 -7 4 C-6.375 6.625 -6.375 6.625 -6 9 C-5.9071875 7.8553125 -5.9071875 7.8553125 -5.8125 6.6875 C-5 4 -5 4 -2.4375 2.25 C-1.633125 1.8375 -0.82875 1.425 0 1 C0 0.67 0 0.34 0 0 Z M-7 12 C-7 14.31 -7 16.62 -7 19 C-5.35 19 -3.7 19 -2 19 C-2.45375 18.5875 -2.9075 18.175 -3.375 17.75 C-5.05950374 15.93591905 -5.99265971 14.24714373 -7 12 Z " fill="#FCFDFA" transform="translate(234,236)"/>
<path d="M0 0 C1.1590686 0.07069702 1.1590686 0.07069702 2.34155273 0.14282227 C3.63609375 0.21533203 3.63609375 0.21533203 4.95678711 0.28930664 C5.8868457 0.34538086 6.8169043 0.40145508 7.77514648 0.45922852 C15.85663 0.90605457 23.87097 1.09408979 31.96264648 0.95922852 C34.86721556 1.01508561 37.39796476 1.33938143 40.21264648 2.02172852 C40.21264648 5.32172852 40.21264648 8.62172852 40.21264648 12.02172852 C38.56264648 12.02172852 36.91264648 12.02172852 35.21264648 12.02172852 C35.70764648 14.49672852 35.70764648 14.49672852 36.21264648 17.02172852 C38.19264648 17.51672852 38.19264648 17.51672852 40.21264648 18.02172852 C40.21264648 21.65172852 40.21264648 25.28172852 40.21264648 29.02172852 C30.31264648 29.51672852 30.31264648 29.51672852 20.21264648 30.02172852 C20.21264648 30.68172852 20.21264648 31.34172852 20.21264648 32.02172852 C20.79240234 31.85423096 21.3721582 31.6867334 21.96948242 31.51416016 C25.46696023 30.7463747 28.92279499 31.18717279 32.46264648 31.45922852 C33.20772461 31.51143555 33.95280273 31.56364258 34.72045898 31.61743164 C36.55159509 31.74655021 38.38218462 31.88337965 40.21264648 32.02172852 C40.83764648 34.33422852 40.83764648 34.33422852 41.21264648 37.02172852 C40.55264648 38.01172852 39.89264648 39.00172852 39.21264648 40.02172852 C36.24755859 40.37817383 36.24755859 40.37817383 32.48999023 40.34985352 C31.82931046 40.34798035 31.16863068 40.34610718 30.4879303 40.34417725 C29.09167432 40.33745461 27.69543723 40.32353568 26.29931641 40.30297852 C24.15501535 40.27179931 22.01144869 40.2620065 19.86694336 40.25610352 C9.37602324 40.18510528 9.37602324 40.18510528 8.21264648 39.02172852 C5.71135936 39.24497636 3.24122884 39.6069981 0.75561523 39.96313477 C-2.04783183 40.02773032 -3.42517819 39.46986863 -5.78735352 38.02172852 C-5.78735352 35.38172852 -5.78735352 32.74172852 -5.78735352 30.02172852 C-5.23273438 30.06249512 -4.67811523 30.10326172 -4.10668945 30.14526367 C-1.5842478 30.32408168 0.93901774 30.4855679 3.46264648 30.64672852 C4.3353418 30.71118164 5.20803711 30.77563477 6.10717773 30.84204102 C7.37368164 30.91938477 7.37368164 30.91938477 8.66577148 30.99829102 C9.44082031 31.05065918 10.21586914 31.10302734 11.0144043 31.15698242 C13.58475102 30.99883359 15.07894956 30.45621119 17.21264648 29.02172852 C18.70992002 23.15740718 18.3105937 17.04004072 18.21264648 11.02172852 C16.20651514 11.83704585 16.20651514 11.83704585 14.21264648 13.02172852 C13.4009342 15.57692773 13.4009342 15.57692773 13.21264648 18.02172852 C11.56264648 18.02172852 9.91264648 18.02172852 8.21264648 18.02172852 C8.21264648 21.65172852 8.21264648 25.28172852 8.21264648 29.02172852 C-2.34735352 28.69172852 -12.90735352 28.36172852 -23.78735352 28.02172852 C-23.78735352 31.65172852 -23.78735352 35.28172852 -23.78735352 39.02172852 C-25.43735352 39.02172852 -27.08735352 39.02172852 -28.78735352 39.02172852 C-29.11735352 38.36172852 -29.44735352 37.70172852 -29.78735352 37.02172852 C-30.11735352 37.68172852 -30.44735352 38.34172852 -30.78735352 39.02172852 C-37.45402018 39.02172852 -44.12068685 39.02172852 -50.78735352 39.02172852 C-50.91235352 32.39672852 -50.91235352 32.39672852 -49.78735352 29.02172852 C-49.22113281 29.18020264 -48.65491211 29.33867676 -48.0715332 29.50195312 C-45.75281902 30.029587 -43.61376955 30.22588451 -41.24047852 30.33813477 C-40.39614258 30.3800293 -39.55180664 30.42192383 -38.68188477 30.46508789 C-37.3728418 30.5240625 -37.3728418 30.5240625 -36.03735352 30.58422852 C-34.70510742 30.64900391 -34.70510742 30.64900391 -33.34594727 30.71508789 C-31.15989389 30.82086467 -28.97373262 30.92295398 -26.78735352 31.02172852 C-26.62299805 29.65854492 -26.62299805 29.65854492 -26.45532227 28.26782227 C-25.2954701 19.07387215 -23.6880394 10.09318387 -21.78735352 1.02172852 C-17.16735352 1.02172852 -12.54735352 1.02172852 -7.78735352 1.02172852 C-7.6055957 2.28629883 -7.42383789 3.55086914 -7.23657227 4.85375977 C-6.98331302 6.51401484 -6.72937113 8.17416588 -6.47485352 9.83422852 C-6.29792969 11.08429688 -6.29792969 11.08429688 -6.11743164 12.35961914 C-5.99174805 13.16206055 -5.86606445 13.96450195 -5.73657227 14.79125977 C-5.62659912 15.52965088 -5.51662598 16.26804199 -5.40332031 17.02880859 C-4.67515669 19.38473394 -3.63850095 20.43408961 -1.78735352 22.02172852 C-1.60825055 13.12397071 -1.60825055 13.12397071 -2.34985352 4.27172852 C-2.49422852 3.19922852 -2.63860352 2.12672852 -2.78735352 1.02172852 C-1.78735352 0.02172852 -1.78735352 0.02172852 0 0 Z M8.21264648 8.02172852 C9.21264648 11.02172852 9.21264648 11.02172852 9.21264648 11.02172852 Z M29.21264648 9.02172852 C30.21264648 11.02172852 30.21264648 11.02172852 30.21264648 11.02172852 Z M29.21264648 19.02172852 C30.21264648 21.02172852 30.21264648 21.02172852 30.21264648 21.02172852 Z " fill="#FAFBF7" transform="translate(275.787353515625,237.978271484375)"/>
<path d="M0 0 C20.13 0 40.26 0 61 0 C60.67 1.32 60.34 2.64 60 4 C59.34 4 58.68 4 58 4 C58.04640625 4.81984375 58.0928125 5.6396875 58.140625 6.484375 C58.19476563 8.10085938 58.19476563 8.10085938 58.25 9.75 C58.29640625 10.81734375 58.3428125 11.8846875 58.390625 12.984375 C58 16 58 16 56.109375 18.390625 C54 20 54 20 52 20 C51.938125 21.051875 51.87625 22.10375 51.8125 23.1875 C50.83807386 27.75980728 49.44588959 28.94568878 46 32 C45.278125 33.03125 44.55625 34.0625 43.8125 35.125 C39.65304296 40.11891601 33.45234377 40.71194692 27.30859375 41.43359375 C17.49736148 42.24868074 17.49736148 42.24868074 15 41 C14.359375 39.1015625 14.359375 39.1015625 13.75 36.625 C12.61690788 32.56089919 11.11923657 29.20821637 9 25.5625 C6.33606467 20.92527924 4.89448406 16.56032616 3.65625 11.37890625 C2.88531641 8.58427199 1.54861691 6.43354085 0 4 C0 2.68 0 1.36 0 0 Z " fill="#CC9B32" transform="translate(238,279)"/>
<path d="M0 0 C0.495 1.485 0.495 1.485 1 3 C1.66 3.33 2.32 3.66 3 4 C3.66 4.33 4.32 4.66 5 5 C5.495 6.485 5.495 6.485 6 8 C6.639375 8.12375 7.27875 8.2475 7.9375 8.375 C8.618125 8.58125 9.29875 8.7875 10 9 C10.66 10.65 11.32 12.3 12 14 C15.96 14 19.92 14 24 14 C24.33 13.01 24.66 12.02 25 11 C26.32 11.33 27.64 11.66 29 12 C29 14.31 29 16.62 29 19 C28.34 19 27.68 19 27 19 C26.814375 20.11375 26.814375 20.11375 26.625 21.25 C26.04513299 23.80141485 25.26291261 25.7267573 24 28 C22.68 28 21.36 28 20 28 C19.896875 28.763125 19.79375 29.52625 19.6875 30.3125 C18.93412462 33.25751284 18.44706902 34.25209356 16 36 C13.3125 36.6875 13.3125 36.6875 11 37 C11 36.34 11 35.68 11 35 C10.34 35 9.68 35 9 35 C9 34.34 9 33.68 9 33 C6.31374546 32.49236135 3.62631617 31.99372803 0.9375 31.5 C0.18533203 31.35691406 -0.56683594 31.21382812 -1.34179688 31.06640625 C-5.97740175 30.223569 -10.2889615 29.84984738 -15 30 C-15 31.32 -15 32.64 -15 34 C-16.32 33.67 -17.64 33.34 -19 33 C-19 32.67 -19 32.34 -19 32 C-22.3 31.67 -25.6 31.34 -29 31 C-28.67 29.02 -28.34 27.04 -28 25 C-27.01 25 -26.02 25 -25 25 C-24.62875 24.0409375 -24.62875 24.0409375 -24.25 23.0625 C-23 21 -23 21 -20.875 20.25 C-19.946875 20.12625 -19.946875 20.12625 -19 20 C-19 19.01 -19 18.02 -19 17 C-20.32 16.67 -21.64 16.34 -23 16 C-23.2475 16.763125 -23.495 17.52625 -23.75 18.3125 C-25.10995558 21.2364045 -26.31585826 22.30004356 -29 24 C-29 22.68 -29 21.36 -29 20 C-29.66 20 -30.32 20 -31 20 C-31 19.34 -31 18.68 -31 18 C-32.32 18.33 -33.64 18.66 -35 19 C-35.33 18.01 -35.66 17.02 -36 16 C-34.35 16 -32.7 16 -31 16 C-30.67 14.68 -30.34 13.36 -30 12 C-30.99 12 -31.98 12 -33 12 C-32.49396008 9.83125748 -32.00016187 8.00032373 -31 6 C-30.34 6 -29.68 6 -29 6 C-29 6.99 -29 7.98 -29 9 C-27.68 9.33 -26.36 9.66 -25 10 C-25 7.36 -25 4.72 -25 2 C-23.34385343 1.61781233 -21.67542976 1.28604898 -20 1 C-19.67 1.33 -19.34 1.66 -19 2 C-12.3526679 2.45084429 -6.27792478 2.28288174 0 0 Z M-25 10 C-24 12 -24 12 -24 12 Z " fill="#DBBA49" transform="translate(303,198)"/>
<path d="M0 0 C0.99 0.66 1.98 1.32 3 2 C3.99 2 4.98 2 6 2 C6 2.66 6 3.32 6 4 C6.66 4 7.32 4 8 4 C8.33 4.99 8.66 5.98 9 7 C11.77000825 3.67913229 11.77000825 3.67913229 14 0 C15.32 0.33 16.64 0.66 18 1 C18 1.99 18 2.98 18 4 C16.36368108 5.04892238 14.69514137 6.04906703 13 7 C12.67 7.66 12.34 8.32 12 9 C11.01 9 10.02 9 9 9 C9.185625 9.639375 9.37125 10.27875 9.5625 10.9375 C9.706875 11.618125 9.85125 12.29875 10 13 C9.67 13.33 9.34 13.66 9 14 C9.63808594 14.04898438 10.27617187 14.09796875 10.93359375 14.1484375 C11.75988281 14.22320312 12.58617187 14.29796875 13.4375 14.375 C14.26121094 14.44460937 15.08492188 14.51421875 15.93359375 14.5859375 C16.95646484 14.79089844 16.95646484 14.79089844 18 15 C18.495 15.99 18.495 15.99 19 17 C19.99 17.33 20.98 17.66 22 18 C22 17.34 22 16.68 22 16 C21.34 15.67 20.68 15.34 20 15 C22 13 22 13 25.875 12.75 C32.6412678 12.90377881 40.28850842 13.19233895 46 17 C46 17.66 46 18.32 46 19 C46.66 19 47.32 19 48 19 C48 19.66 48 20.32 48 21 C51.93281241 19.42687504 53.69057041 18.5260303 55.875 14.8125 C56.431875 13.4203125 56.431875 13.4203125 57 12 C58.32 12.33 59.64 12.66 61 13 C58.79711246 16.70098045 56.49140294 19.45232029 53 22 C47.3353083 23.27021893 41.80715731 23.05245078 36.03125 22.87890625 C34.38362113 22.86209818 32.73594696 22.84929739 31.08825684 22.84031677 C26.77324948 22.80612263 22.46101439 22.71787447 18.14709473 22.61798096 C13.73646545 22.52553775 9.32538346 22.48472952 4.9140625 22.43945312 C-3.7252238 22.34323146 -12.36226607 22.18984609 -21 22 C-21 21.67 -21 21.34 -21 21 C-18.03 20.67 -15.06 20.34 -12 20 C-12 19.34 -12 18.68 -12 18 C-12.99 17.67 -13.98 17.34 -15 17 C-13.18884044 15.18884044 -10.38721773 15.61800552 -7.9375 15.4375 C-6.83277344 15.35371094 -5.72804688 15.26992187 -4.58984375 15.18359375 C-3.73519531 15.12300781 -2.88054687 15.06242188 -2 15 C-2 14.34 -2 13.68 -2 13 C-7.445 13.495 -7.445 13.495 -13 14 C-13.33 13.34 -13.66 12.68 -14 12 C-13.01 11.67 -12.02 11.34 -11 11 C-11.9590625 10.8453125 -11.9590625 10.8453125 -12.9375 10.6875 C-13.618125 10.460625 -14.29875 10.23375 -15 10 C-15.33 9.01 -15.66 8.02 -16 7 C-13.69 7 -11.38 7 -9 7 C-9 6.34 -9 5.68 -9 5 C-6.1875 4.375 -6.1875 4.375 -3 4 C-2.01 4.66 -1.02 5.32 0 6 C-0.185625 5.195625 -0.37125 4.39125 -0.5625 3.5625 C-0.706875 2.716875 -0.85125 1.87125 -1 1 C-0.67 0.67 -0.34 0.34 0 0 Z " fill="#C38F2E" transform="translate(266,214)"/>
<path d="M0 0 C3.27433769 3.78595296 4.09114888 7.47760642 4.3125 12.375 C3.99633852 16.35863461 3.61944306 18.31885079 1 21.3125 C-0.32 21.3125 -1.64 21.3125 -3 21.3125 C-3 20.3225 -3 19.3325 -3 18.3125 C-7.98347834 18.14356853 -11.42934474 18.15413502 -16 20.3125 C-17.32676508 20.67108516 -18.65835921 21.0143576 -20 21.3125 C-23.70665356 17.60584644 -23.99098604 13.3332737 -24 8.3125 C-22.97427748 3.79932089 -20.47621417 1.29211215 -17 -1.6875 C-11.43274187 -3.64483075 -5.06296656 -2.84791869 0 0 Z M-12 4.3125 C-12 5.6325 -12 6.9525 -12 8.3125 C-10.02 8.3125 -8.04 8.3125 -6 8.3125 C-5.67 7.6525 -5.34 6.9925 -5 6.3125 C-6.37485532 4.77083358 -6.37485532 4.77083358 -8 3.3125 C-10.0745356 3.1634288 -10.0745356 3.1634288 -12 4.3125 Z M-12 10.3125 C-11.67 11.6325 -11.34 12.9525 -11 14.3125 C-9.35 13.9825 -7.7 13.6525 -6 13.3125 C-6 12.3225 -6 11.3325 -6 10.3125 C-7.98 10.3125 -9.96 10.3125 -12 10.3125 Z " fill="#AA7517" transform="translate(265,191.6875)"/>
<path d="M0 0 C1.73734147 3.80043446 2 5.59714577 2 10 C5.3 10.33 8.6 10.66 12 11 C12 11.66 12 12.32 12 13 C14.31 13.66 16.62 14.32 19 15 C19.33 14.01 19.66 13.02 20 12 C20.99 12 21.98 12 23 12 C24.4606285 14.64738916 25 15.89448334 25 19 C25.99 19.33 26.98 19.66 28 20 C28.33333333 21.33333333 28.66666667 22.66666667 29 24 C29.99 24.33 30.98 24.66 32 25 C32 25.66 32 26.32 32 27 C29.22813012 27.10787818 26.46044463 27.18723327 23.6875 27.25 C22.90181641 27.28351563 22.11613281 27.31703125 21.30664062 27.3515625 C15.50560399 27.45030355 15.50560399 27.45030355 13 25.21875 C11.63789321 22.19657556 11.31553525 19.28156658 11 16 C9.783125 16.020625 8.56625 16.04125 7.3125 16.0625 C4.06993983 16.0682289 1.16930045 15.72441153 -2 15 C-2.99 15 -3.98 15 -5 15 C-5 11.37 -5 7.74 -5 4 C-6.32 4.33 -7.64 4.66 -9 5 C-9.33 5.66 -9.66 6.32 -10 7 C-11.65 7 -13.3 7 -15 7 C-15 6.34 -15 5.68 -15 5 C-16.98 5 -18.96 5 -21 5 C-21 5.66 -21 6.32 -21 7 C-23.64 7 -26.28 7 -29 7 C-28.67 5.68 -28.34 4.36 -28 3 C-18.5948996 0.70986917 -9.67720706 -0.18182644 0 0 Z " fill="#F6F177" transform="translate(237,151)"/>
<path d="M0 0 C2.0625 0.4375 2.0625 0.4375 4 1 C2.68 1.33 1.36 1.66 0 2 C0.33 3.98 0.66 5.96 1 8 C0.360625 8.144375 -0.27875 8.28875 -0.9375 8.4375 C-2.97545146 8.81007181 -2.97545146 8.81007181 -4 10 C-4.04092937 12.33297433 -4.04241723 14.66705225 -4 17 C-5.32 17.33 -6.64 17.66 -8 18 C-8 18.66 -8 19.32 -8 20 C-6.68 20.33 -5.36 20.66 -4 21 C-3.06934867 23.60582371 -2.85082593 24.64198224 -3.9375 27.25 C-4.4634375 28.11625 -4.4634375 28.11625 -5 29 C-3.35 29 -1.7 29 0 29 C0.33 31.31 0.66 33.62 1 36 C0.34 36 -0.32 36 -1 36 C-1.495 33.525 -1.495 33.525 -2 31 C-3.98 31 -5.96 31 -8 31 C-8 31.99 -8 32.98 -8 34 C-7.21625 34.309375 -6.4325 34.61875 -5.625 34.9375 C-3 36 -3 36 -1 37 C-0.375 39.0625 -0.375 39.0625 0 41 C-4.92310579 40.56560831 -7.58903229 38.4884897 -11 35 C-11.875 31.6875 -11.875 31.6875 -12 29 C-11.34 29 -10.68 29 -10 29 C-10.33 28.34 -10.66 27.68 -11 27 C-11.66 27.33 -12.32 27.66 -13 28 C-14.35439668 25.29120665 -14.06501451 22.99066732 -14 20 C-14.66 20 -15.32 20 -16 20 C-16.4021875 19.0409375 -16.4021875 19.0409375 -16.8125 18.0625 C-17.88667752 15.66868314 -17.88667752 15.66868314 -21 15 C-21 12.69 -21 10.38 -21 8 C-20.13375 8.2784375 -20.13375 8.2784375 -19.25 8.5625 C-16.69889332 9.05854852 -15.38350007 9.03285003 -13 8 C-11.71563266 6.0162233 -11.71563266 6.0162233 -11 4 C-10.34 4.33 -9.68 4.66 -9 5 C-9 4.01 -9 3.02 -9 2 C-8.34 2 -7.68 2 -7 2 C-7.33 3.65 -7.66 5.3 -8 7 C-6.02 6.67 -4.04 6.34 -2 6 C-1.855625 5.195625 -1.71125 4.39125 -1.5625 3.5625 C-1 1 -1 1 0 0 Z M-13 22 C-12 25 -12 25 -12 25 Z " fill="#B8902A" transform="translate(244,184)"/>
<path d="M0 0 C4.51720311 -0.36625971 4.51720311 -0.36625971 6.8125 1.375 C8 3 8 3 8 5 C8.928125 5.0928125 8.928125 5.0928125 9.875 5.1875 C10.57625 5.455625 11.2775 5.72375 12 6 C12.66 7.65 13.32 9.3 14 11 C17.96 11 21.92 11 26 11 C26.33 10.01 26.66 9.02 27 8 C28.32 8.33 29.64 8.66 31 9 C31 11.31 31 13.62 31 16 C30.34 16 29.68 16 29 16 C28.87625 16.7425 28.7525 17.485 28.625 18.25 C28.04513299 20.80141485 27.26291261 22.7267573 26 25 C24.68 25 23.36 25 22 25 C21.67 26.32 21.34 27.64 21 29 C18.32690093 24.9903514 18 22.82843714 18 18 C15.03 18 12.06 18 9 18 C8.67 14.37 8.34 10.74 8 7 C7.34 7 6.68 7 6 7 C6 7.66 6 8.32 6 9 C4.02 9 2.04 9 0 9 C0 6.03 0 3.06 0 0 Z " fill="#F2EA67" transform="translate(301,201)"/>
<path d="M0 0 C0.01417969 0.9178125 0.02835937 1.835625 0.04296875 2.78125 C0.31078874 9.67218606 0.58792881 14.86963922 4.84375 20.44921875 C6 22 6 22 7 25 C6.34 25 5.68 25 5 25 C4.443125 24.401875 3.88625 23.80375 3.3125 23.1875 C0.38996893 20.42294358 -2.26054527 19.43825182 -6 18 C-6 16.68 -6 15.36 -6 14 C-8.64 13.67 -11.28 13.34 -14 13 C-14 12.01 -14 11.02 -14 10 C-14.66 10 -15.32 10 -16 10 C-16 9.34 -16 8.68 -16 8 C-16.66 8 -17.32 8 -18 8 C-20 5 -20 5 -19.625 2.3125 C-19.41875 1.549375 -19.2125 0.78625 -19 0 C-12.46837378 -1.10914408 -6.56492112 -0.78441153 0 0 Z " fill="#C8B257" transform="translate(293,165)"/>
<path d="M0 0 C20.13 0 40.26 0 61 0 C60.67 1.32 60.34 2.64 60 4 C59.34 4 58.68 4 58 4 C58 7.63 58 11.26 58 15 C57.01 15.33 56.02 15.66 55 16 C53.64560332 13.29120665 53.93498549 10.99066732 54 8 C52.1746875 8.2784375 52.1746875 8.2784375 50.3125 8.5625 C46.97959986 8.97615782 44.23920237 9.07973412 41 8 C40.505 7.01 40.505 7.01 40 6 C37.67843403 5.59270772 35.3431213 5.25561323 33 5 C33 4.34 33 3.68 33 3 C28.76419747 2.92592094 24.52873659 2.87143304 20.29248047 2.83520508 C18.85100742 2.82010517 17.40958041 2.79962342 15.96826172 2.77368164 C13.89799657 2.7373487 11.82833793 2.72028671 9.7578125 2.70703125 C8.5114502 2.6913208 7.26508789 2.67561035 5.98095703 2.65942383 C4.99724121 2.77181396 4.01352539 2.8842041 3 3 C2.34 3.99 1.68 4.98 1 6 C0.67 4.02 0.34 2.04 0 0 Z " fill="#DCB84C" transform="translate(238,279)"/>
<path d="M0 0 C0.66 0 1.32 0 2 0 C4 2 4 2 6 5 C9.08365871 5.2502157 9.08365871 5.2502157 12 5 C12.33 5.99 12.66 6.98 13 8 C13.845625 7.896875 14.69125 7.79375 15.5625 7.6875 C19.95373467 8.08670315 22.95220856 9.79891727 26 13 C26 13.99 26 14.98 26 16 C27.65 16.33 29.3 16.66 31 17 C31 17.66 31 18.32 31 19 C31.66 19.33 32.32 19.66 33 20 C25.74631046 22.63770529 17.4630593 23.22644967 10 21 C9.87625 20.401875 9.7525 19.80375 9.625 19.1875 C9.04524015 16.73768652 9.04524015 16.73768652 7 14 C6.896875 13.21625 6.79375 12.4325 6.6875 11.625 C5.46871204 6.97144598 1.86802999 4.57868666 -2 2 C-1.34 1.34 -0.68 0.68 0 0 Z " fill="#F5ED71" transform="translate(270,179)"/>
<path d="M0 0 C2.32108669 0.70812814 4.65377147 1.38024152 7 2 C6.979375 2.763125 6.95875 3.52625 6.9375 4.3125 C6.87057159 7.10185786 6.87057159 7.10185786 8 10 C8.66 10 9.32 10 10 10 C10 10.66 10 11.32 10 12 C10.66 12 11.32 12 12 12 C12 12.99 12 13.98 12 15 C14.64 15.33 17.28 15.66 20 16 C20.020625 16.598125 20.04125 17.19625 20.0625 17.8125 C20.88853917 20.40175192 20.88853917 20.40175192 24.375 21.625 C25.57125 22.07875 26.7675 22.5325 28 23 C28.99 23.66 29.98 24.32 31 25 C31 25.66 31 26.32 31 27 C31.99 27.33 32.98 27.66 34 28 C35.1875 31.5625 35.1875 31.5625 36 35 C35.34 35 34.68 35 34 35 C34 34.34 34 33.68 34 33 C32.88625 32.9071875 32.88625 32.9071875 31.75 32.8125 C29 32 29 32 27.1875 29.6875 C24.32235512 26.16746487 21.10045868 24.78150996 17 23 C17 21.02 17 19.04 17 17 C14.69 17 12.38 17 10 17 C9.67 16.01 9.34 15.02 9 14 C5.37 13.34 1.74 12.68 -2 12 C-2 11.01 -2 10.02 -2 9 C-2.66 8.67 -3.32 8.34 -4 8 C-5.0703125 5.93359375 -5.0703125 5.93359375 -6.125 3.4375 C-6.47820312 2.61121094 -6.83140625 1.78492188 -7.1953125 0.93359375 C-7.46085937 0.29550781 -7.72640625 -0.34257812 -8 -1 C-3.375 -2.25 -3.375 -2.25 0 0 Z " fill="#DACA64" transform="translate(267,163)"/>
<path d="M0 0 C0.66 0 1.32 0 2 0 C1.125 6.75 1.125 6.75 0 9 C0.66 9 1.32 9 2 9 C3.13495783 15.5260075 4.12390495 22.62828516 2 29 C2.33 29.66 2.66 30.32 3 31 C2.67 31.66 2.34 32.32 2 33 C-0.64860427 33.59355614 -3.29197322 33.74209269 -6 34 C-6.9765625 27.9453125 -6.9765625 27.9453125 -7 26 C-6.34 25.34 -5.68 24.68 -5 24 C-4.54188325 22.02764667 -4.54188325 22.02764667 -4.375 19.875 C-4.25125 18.59625 -4.1275 17.3175 -4 16 C-4.66 16 -5.32 16 -6 16 C-5.82893911 9.1420136 -4.5409319 5.20545852 0 0 Z " fill="#E4C557" transform="translate(177,177)"/>
<path d="M0 0 C2.57928195 3.06289732 3.37697333 5.42916441 4 9.375 C3.125 12.3125 3.125 12.3125 2 14.375 C1.21625 14.189375 0.4325 14.00375 -0.375 13.8125 C-2.97089775 13.11537734 -2.97089775 13.11537734 -5 14.375 C-4.979375 13.281875 -4.95875 12.18875 -4.9375 11.0625 C-4.81455548 7.43115809 -4.81455548 7.43115809 -6 4.375 C-6.90492188 4.48328125 -6.90492188 4.48328125 -7.828125 4.59375 C-8.62734375 4.6865625 -9.4265625 4.779375 -10.25 4.875 C-11.43335938 5.01421875 -11.43335938 5.01421875 -12.640625 5.15625 C-15 5.375 -15 5.375 -19 5.375 C-19.99 5.705 -20.98 6.035 -22 6.375 C-21.45700313 2.57402189 -19.92723228 0.80042103 -17 -1.625 C-11.40461451 -3.5379523 -5.12837213 -2.77786824 0 0 Z " fill="#D8B745" transform="translate(265,191.625)"/>
<path d="M0 0 C2.31 0 4.62 0 7 0 C7.33 1.32 7.66 2.64 8 4 C11.63 4.33 15.26 4.66 19 5 C19.33 6.98 19.66 8.96 20 11 C19.34 11 18.68 11 18 11 C17.67 10.34 17.34 9.68 17 9 C16.401875 9.66 15.80375 10.32 15.1875 11 C13 13 13 13 10 13 C9.67 11.68 9.34 10.36 9 9 C7.04105639 9.11306697 7.04105639 9.11306697 5 10 C4.71125 10.825 4.4225 11.65 4.125 12.5 C3.568125 13.7375 3.568125 13.7375 3 15 C-0.125 15.8125 -0.125 15.8125 -3 16 C-2.34 14.35 -1.68 12.7 -1 11 C-0.34 11 0.32 11 1 11 C1 10.34 1 9.68 1 9 C1.99 9 2.98 9 4 9 C4.33 8.01 4.66 7.02 5 6 C2.525 5.01 2.525 5.01 0 4 C0 2.68 0 1.36 0 0 Z " fill="#E1CB5B" transform="translate(239,175)"/>
<path d="M0 0 C0.99 0.66 1.98 1.32 3 2 C3.99 2 4.98 2 6 2 C6 2.66 6 3.32 6 4 C6.66 4.33 7.32 4.66 8 5 C7.360625 5.433125 6.72125 5.86625 6.0625 6.3125 C3.73253997 7.91239177 3.73253997 7.91239177 3 11 C-0.59711928 11.72994559 -4.20060329 12.40974758 -7.8125 13.0625 C-8.78832031 13.23910156 -9.76414062 13.41570312 -10.76953125 13.59765625 C-11.50558594 13.73042969 -12.24164063 13.86320313 -13 14 C-13.33 13.34 -13.66 12.68 -14 12 C-13.01 11.67 -12.02 11.34 -11 11 C-11.9590625 10.8453125 -11.9590625 10.8453125 -12.9375 10.6875 C-13.618125 10.460625 -14.29875 10.23375 -15 10 C-15.33 9.01 -15.66 8.02 -16 7 C-13.69 7 -11.38 7 -9 7 C-9 6.34 -9 5.68 -9 5 C-6.1875 4.375 -6.1875 4.375 -3 4 C-2.01 4.66 -1.02 5.32 0 6 C-0.2784375 4.7934375 -0.2784375 4.7934375 -0.5625 3.5625 C-0.706875 2.716875 -0.85125 1.87125 -1 1 C-0.67 0.67 -0.34 0.34 0 0 Z " fill="#C18B2E" transform="translate(266,214)"/>
<path d="M0 0 C1.32 0.33 2.64 0.66 4 1 C-1.89476882 9.51278936 -1.89476882 9.51278936 -6.734375 10.6328125 C-9.55326263 10.62502552 -12.21156083 10.40544071 -15 10 C-15.74507813 9.91492188 -16.49015625 9.82984375 -17.2578125 9.7421875 C-18.84532993 9.54294442 -20.42472786 9.28004838 -22 9 C-22 8.34 -22 7.68 -22 7 C-24.97 6.505 -24.97 6.505 -28 6 C-28 4.35 -28 2.7 -28 1 C-25.72796198 1.2821289 -23.45738316 1.57602856 -21.1875 1.875 C-19.29064453 2.11863281 -19.29064453 2.11863281 -17.35546875 2.3671875 C-14 3 -14 3 -11 5 C-11 5.66 -11 6.32 -11 7 C-10.34 7 -9.68 7 -9 7 C-9 7.66 -9 8.32 -9 9 C-5.06718759 7.42687504 -3.30942959 6.5260303 -1.125 2.8125 C-0.75375 1.884375 -0.3825 0.95625 0 0 Z " fill="#CCA135" transform="translate(323,226)"/>
<path d="M0 0 C20.13 0 40.26 0 61 0 C61 0.66 61 1.32 61 2 C59.91671921 2.00879936 59.91671921 2.00879936 58.81155396 2.01777649 C52.01311259 2.07562604 45.21495436 2.14765773 38.41684151 2.23571491 C34.92163513 2.2804861 31.42654712 2.31972669 27.93115234 2.34643555 C23.914736 2.3773659 19.89895633 2.43215643 15.8828125 2.48828125 C14.62445587 2.49467117 13.36609924 2.5010611 12.0696106 2.50764465 C10.32803177 2.53733589 10.32803177 2.53733589 8.55126953 2.56762695 C7.01238571 2.58428154 7.01238571 2.58428154 5.44241333 2.60127258 C4.23341873 2.79864265 4.23341873 2.79864265 3 3 C2.34 3.99 1.68 4.98 1 6 C0.67 4.02 0.34 2.04 0 0 Z " fill="#E0C872" transform="translate(238,279)"/>
<path d="M0 0 C6.93 0.495 6.93 0.495 14 1 C14.92538169 4.70152678 15.08174162 5.63458162 14 9 C12.41870971 9.22331199 10.83478911 9.42804644 9.25 9.625 C8.36828125 9.74101562 7.4865625 9.85703125 6.578125 9.9765625 C3.77140122 10.00207817 2.36615134 9.44843844 0 8 C0 5.36 0 2.72 0 0 Z " fill="#FDFDFA" transform="translate(270,268)"/>
<path d="M0 0 C0.66 0 1.32 0 2 0 C1.59658469 2.90459025 1.22814394 4.69885 -0.5625 7.0625 C-2.39723128 9.13330995 -2.39723128 9.13330995 -2 13 C-2 15 -2 17 -2 19 C-2.66 19 -3.32 19 -4 19 C-3.67 19.99 -3.34 20.98 -3 22 C-2.34 22 -1.68 22 -1 22 C-2 25 -2 25 -4 26 C-5.35439668 23.29120665 -5.06501451 20.99066732 -5 18 C-5.66 18 -6.32 18 -7 18 C-7.4021875 17.0409375 -7.4021875 17.0409375 -7.8125 16.0625 C-8.88667752 13.66868314 -8.88667752 13.66868314 -12 13 C-12 10.69 -12 8.38 -12 6 C-11.13375 6.2784375 -11.13375 6.2784375 -10.25 6.5625 C-7.69889332 7.05854852 -6.38350007 7.03285003 -4 6 C-2.71563266 4.0162233 -2.71563266 4.0162233 -2 2 C-1.34 2.33 -0.68 2.66 0 3 C0 2.01 0 1.02 0 0 Z " fill="#B98021" transform="translate(235,186)"/>
<path d="M0 0 C1.32 0.33 2.64 0.66 4 1 C4 3.31 4 5.62 4 8 C3.34 8 2.68 8 2 8 C1.87625 8.7425 1.7525 9.485 1.625 10.25 C1.04513299 12.80141485 0.26291261 14.7267573 -1 17 C-2.32 17 -3.64 17 -5 17 C-5.33 18.32 -5.66 19.64 -6 21 C-8 18 -8 18 -9 15 C-8.01 14.01 -7.02 13.02 -6 12 C-6 12.66 -6 13.32 -6 14 C-5.34 13.67 -4.68 13.34 -4 13 C-4.33 12.34 -4.66 11.68 -5 11 C-5.66 11 -6.32 11 -7 11 C-6.67 9.68 -6.34 8.36 -6 7 C-5.34 7 -4.68 7 -4 7 C-4 6.34 -4 5.68 -4 5 C-2.35 4.34 -0.7 3.68 1 3 C0.67 2.01 0.34 1.02 0 0 Z " fill="#F6F171" transform="translate(328,209)"/>
<path d="M0 0 C0.66 0 1.32 0 2 0 C2.33 1.65 2.66 3.3 3 5 C3.99 5.33 4.98 5.66 6 6 C6.33333333 7.33333333 6.66666667 8.66666667 7 10 C7.99 10.33 8.98 10.66 10 11 C10 11.66 10 12.32 10 13 C4.39 13 -1.22 13 -7 13 C-7.66 11.68 -8.32 10.36 -9 9 C-8.01 8.67 -7.02 8.34 -6 8 C-6 7.34 -6 6.68 -6 6 C-5.34 6 -4.68 6 -4 6 C-4 6.99 -4 7.98 -4 9 C-3.34 9 -2.68 9 -2 9 C-1.855625 7.700625 -1.71125 6.40125 -1.5625 5.0625 C-1.125 1.125 -1.125 1.125 0 0 Z " fill="#F8F272" transform="translate(259,165)"/>
<path d="M0 0 C0.66 0 1.32 0 2 0 C1.125 6.75 1.125 6.75 0 9 C0.66 9 1.32 9 2 9 C3.81818182 20.36363636 3.81818182 20.36363636 2 24 C1.01 24 0.02 24 -1 24 C-1 21.03 -1 18.06 -1 15 C-1.99 15.495 -1.99 15.495 -3 16 C-3.33 15.01 -3.66 14.02 -4 13 C-4.66 12.67 -5.32 12.34 -6 12 C-4.83184255 7.03533083 -3.64757179 3.7615584 0 0 Z " fill="#E0BB4B" transform="translate(177,177)"/>
<path d="M0 0 C3.87498404 -0.02917234 7.74993958 -0.04685673 11.625 -0.0625 C12.71941406 -0.07087891 13.81382812 -0.07925781 14.94140625 -0.08789062 C16.53662109 -0.09272461 16.53662109 -0.09272461 18.1640625 -0.09765625 C19.62513428 -0.10551147 19.62513428 -0.10551147 21.11572266 -0.11352539 C24.14875321 0.00585494 27.01915268 0.44133276 30 1 C30 1.66 30 2.32 30 3 C32.31 3 34.62 3 37 3 C37.495 4.485 37.495 4.485 38 6 C34.20732808 6.9360342 31.06325435 6.98276252 27.1875 6.5625 C26.21167969 6.46066406 25.23585938 6.35882813 24.23046875 6.25390625 C23.49441406 6.17011719 22.75835937 6.08632813 22 6 C22 5.67 22 5.34 22 5 C24.31 5 26.62 5 29 5 C29 4.34 29 3.68 29 3 C21.08 3 13.16 3 5 3 C5 2.34 5 1.68 5 1 C3.35 1 1.7 1 0 1 C0 0.67 0 0.34 0 0 Z " fill="#D0A13C" transform="translate(241,281)"/>
<path d="M0 0 C2.19510603 0.25361783 4.38228739 0.57765908 6.5625 0.9375 C8.35880859 1.22947266 8.35880859 1.22947266 10.19140625 1.52734375 C11.11824219 1.68332031 12.04507812 1.83929688 13 2 C12.67 4.64 12.34 7.28 12 10 C9.69 10 7.38 10 5 10 C4.67 8.68 4.34 7.36 4 6 C3.34 6 2.68 6 2 6 C2.33 6.99 2.66 7.98 3 9 C1.68 9.33 0.36 9.66 -1 10 C-1.02689216 8.52093108 -1.04634621 7.04172517 -1.0625 5.5625 C-1.07410156 4.73878906 -1.08570313 3.91507812 -1.09765625 3.06640625 C-1 1 -1 1 0 0 Z " fill="#FCFCFB" transform="translate(255,267)"/>
<path d="M0 0 C0.33 0.99 0.66 1.98 1 3 C0.67 3.33 0.34 3.66 0 4 C0.62648437 4.12117187 1.25296875 4.24234375 1.8984375 4.3671875 C2.71570313 4.53476563 3.53296875 4.70234375 4.375 4.875 C5.18710938 5.03742188 5.99921875 5.19984375 6.8359375 5.3671875 C9 6 9 6 11 8 C-1.48519362 10.48063781 -1.48519362 10.48063781 -8 9 C-8.66 7.02 -9.32 5.04 -10 3 C-9.34 3 -8.68 3 -8 3 C-8 2.34 -8 1.68 -8 1 C-5.36 0.67 -2.72 0.34 0 0 Z " fill="#DCB846" transform="translate(240,227)"/>
<path d="M0 0 C3.3 0.99 6.6 1.98 10 3 C10.33 4.98 10.66 6.96 11 9 C12.32 9 13.64 9 15 9 C15 9.66 15 10.32 15 11 C11.98675805 12.50662097 9.31713623 12.17770373 6 12 C5.34 11.34 4.68 10.68 4 10 C4.33 9.34 4.66 8.68 5 8 C4.34 8 3.68 8 3 8 C3 7.34 3 6.68 3 6 C2.01 6 1.02 6 0 6 C0 5.34 0 4.68 0 4 C-0.99 3.67 -1.98 3.34 -3 3 C-2.01 2.01 -1.02 1.02 0 0 Z " fill="#DDBA50" transform="translate(185,218)"/>
<path d="M0 0 C3 1 3 1 4 3 C6.31979381 4.03101947 8.65429915 5.02936517 11 6 C11.99 6.66 12.98 7.32 14 8 C14 8.66 14 9.32 14 10 C14.99 10.33 15.98 10.66 17 11 C18.1875 14.5625 18.1875 14.5625 19 18 C18.34 18 17.68 18 17 18 C17 17.34 17 16.68 17 16 C16.2575 15.938125 15.515 15.87625 14.75 15.8125 C12 15 12 15 10.1875 12.6875 C7.32235512 9.16746487 4.10045868 7.78150996 0 6 C0 4.02 0 2.04 0 0 Z " fill="#DDD260" transform="translate(284,180)"/>
<path d="M0 0 C1.98 0 3.96 0 6 0 C6.33 1.65 6.66 3.3 7 5 C8.65 5 10.3 5 12 5 C12 4.34 12 3.68 12 3 C14.97 3.495 14.97 3.495 18 4 C18 4.66 18 5.32 18 6 C17.01 6.33 16.02 6.66 15 7 C15 7.66 15 8.32 15 9 C17.64 9 20.28 9 23 9 C19.17482487 11.39073445 15.40334476 11.55966552 11 12 C11 11.01 11 10.02 11 9 C9.68 8.67 8.36 8.34 7 8 C7 7.34 7 6.68 7 6 C6.21625 5.7525 5.4325 5.505 4.625 5.25 C1.67682892 3.84610901 1.0975223 2.99324263 0 0 Z " fill="#C69F33" transform="translate(236,215)"/>
<path d="M0 0 C0.99 0 1.98 0 3 0 C3.33 5.28 3.66 10.56 4 16 C3.01 15.67 2.02 15.34 1 15 C1 14.01 1 13.02 1 12 C0.071875 11.8453125 0.071875 11.8453125 -0.875 11.6875 C-3 11 -3 11 -5 8 C-5 7.01 -5 6.02 -5 5 C-5.99 4.67 -6.98 4.34 -8 4 C-7.67 3.34 -7.34 2.68 -7 2 C-4.69 2 -2.38 2 0 2 C0 1.34 0 0.68 0 0 Z " fill="#AC8E45" transform="translate(290,165)"/>
<path d="M0 0 C0.99 0 1.98 0 3 0 C3.66 0 4.32 0 5 0 C5 0.66 5 1.32 5 2 C5.99 2.33 6.98 2.66 8 3 C6.8125 4.5 6.8125 4.5 5 6 C2.3125 6.1875 2.3125 6.1875 0 6 C0 6.66 0 7.32 0 8 C-1.65 8.33 -3.3 8.66 -5 9 C-5 8.34 -5 7.68 -5 7 C-6.32 7 -7.64 7 -9 7 C-9 5.35 -9 3.7 -9 2 C-5.84343086 0.12944051 -3.64314294 -0.18682784 0 0 Z " fill="#E2C450" transform="translate(215,220)"/>
<path d="M0 0 C0.66 0.33 1.32 0.66 2 1 C2.625 3.0625 2.625 3.0625 3 5 C4.65 5.33 6.3 5.66 8 6 C8.66 4.68 9.32 3.36 10 2 C10.28855285 6.9053984 10.26204794 10.1554435 7 14 C5.68 14 4.36 14 3 14 C3 13.01 3 12.02 3 11 C0.03 10.505 0.03 10.505 -3 10 C-2.67 8.68 -2.34 7.36 -2 6 C-1.34 6 -0.68 6 0 6 C-0.2784375 4.7934375 -0.2784375 4.7934375 -0.5625 3.5625 C-0.706875 2.716875 -0.85125 1.87125 -1 1 C-0.67 0.67 -0.34 0.34 0 0 Z " fill="#C49833" transform="translate(259,199)"/>
<path d="M0 0 C2.0625 0.4375 2.0625 0.4375 4 1 C2.68 1.33 1.36 1.66 0 2 C0.33 3.98 0.66 5.96 1 8 C0.401875 8.144375 -0.19625 8.28875 -0.8125 8.4375 C-2.56150404 8.8872439 -4.28677023 9.42892341 -6 10 C-6 10.66 -6 11.32 -6 12 C-6.99 12 -7.98 12 -9 12 C-9 12.66 -9 13.32 -9 14 C-7.68 14.66 -6.36 15.32 -5 16 C-6.65 16 -8.3 16 -10 16 C-10 18.64 -10 21.28 -10 24 C-10.66 24 -11.32 24 -12 24 C-12.33 23.01 -12.66 22.02 -13 21 C-12.34 21 -11.68 21 -11 21 C-11.10699219 20.40832031 -11.21398437 19.81664062 -11.32421875 19.20703125 C-11.90184156 15.39968952 -12.23271424 12.69814272 -11 9 C-8.21632375 6.21632375 -5.8394204 6.21732568 -2 6 C-1.855625 5.195625 -1.71125 4.39125 -1.5625 3.5625 C-1 1 -1 1 0 0 Z " fill="#C09A2E" transform="translate(244,184)"/>
<path d="M0 0 C1.65 1.32 3.3 2.64 5 4 C5.33 2.68 5.66 1.36 6 0 C7.32 0.33 8.64 0.66 10 1 C9.2575 1.721875 8.515 2.44375 7.75 3.1875 C4.99090071 5.82041082 4.99090071 5.82041082 3.3125 8.625 C-0.13086124 12.16142506 -4.23216434 13.06018624 -9 14 C-10.32 14 -11.64 14 -13 14 C-13.33 12.35 -13.66 10.7 -14 9 C-13.01 9 -12.02 9 -11 9 C-11 9.66 -11 10.32 -11 11 C-7.97653399 11.2519555 -6.3597993 11.20421041 -3.6875 9.6875 C-3.130625 9.130625 -2.57375 8.57375 -2 8 C-2 7.01 -2 6.02 -2 5 C-1.01 5 -0.02 5 1 5 C0.34 3.68 -0.32 2.36 -1 1 C-0.67 0.67 -0.34 0.34 0 0 Z " fill="#BD8F2A" transform="translate(278,306)"/>
<path d="M0 0 C0.66 0 1.32 0 2 0 C2 0.99 2 1.98 2 3 C2.9590625 3.1546875 2.9590625 3.1546875 3.9375 3.3125 C4.618125 3.539375 5.29875 3.76625 6 4 C7 7 7 7 5.6875 10.625 C4 14 4 14 2 15 C1.34 14.67 0.68 14.34 0 14 C0 13.34 0 12.68 0 12 C-1.32 12.33 -2.64 12.66 -4 13 C-4.33 12.01 -4.66 11.02 -5 10 C-3.35 10 -1.7 10 0 10 C0.33 8.68 0.66 7.36 1 6 C0.01 6 -0.98 6 -2 6 C-1.49396008 3.83125748 -1.00016187 2.00032373 0 0 Z " fill="#BE9A2F" transform="translate(272,204)"/>
<path d="M0 0 C1.32 0 2.64 0 4 0 C4 2.31 4 4.62 4 7 C2.68 7.33 1.36 7.66 0 8 C0 8.66 0 9.32 0 10 C1.32 10.33 2.64 10.66 4 11 C4.6875 12.8125 4.6875 12.8125 5 15 C3.5625 16.75 3.5625 16.75 2 18 C0 16.5 0 16.5 -2 14 C-2.35800135 11.24128373 -2.18660165 8.79902476 -2 6 C-1.01 5.67 -0.02 5.34 1 5 C0.34 4.67 -0.32 4.34 -1 4 C-0.67 2.68 -0.34 1.36 0 0 Z " fill="#B88627" transform="translate(236,194)"/>
<path d="M0 0 C0.33 0.66 0.66 1.32 1 2 C1.66 2.33 2.32 2.66 3 3 C2.01 4.32 1.02 5.64 0 7 C-0.99 6.67 -1.98 6.34 -3 6 C-3 8.97 -3 11.94 -3 15 C-4.32 14.67 -5.64 14.34 -7 14 C-7.2236337 12.58566794 -7.42826476 11.16832382 -7.625 9.75 C-7.74101562 8.96109375 -7.85703125 8.1721875 -7.9765625 7.359375 C-8.00319395 4.67847541 -7.36592084 3.27305911 -6 1 C-6 1.66 -6 2.32 -6 3 C-4.02 2.01 -2.04 1.02 0 0 Z " fill="#C19532" transform="translate(249,195)"/>
<path d="M0 0 C6.27 0 12.54 0 19 0 C19 0.99 19 1.98 19 3 C19.99 3 20.98 3 22 3 C22 4.32 22 5.64 22 7 C15.84765625 6.4140625 15.84765625 6.4140625 14 6 C13.67 5.34 13.34 4.68 13 4 C10.67843403 3.59270772 8.3431213 3.25561323 6 3 C6 2.34 6 1.68 6 1 C4.02 1 2.04 1 0 1 C0 0.67 0 0.34 0 0 Z " fill="#DBB64B" transform="translate(265,281)"/>
<path d="M0 0 C1.65 1.65 3.3 3.3 5 5 C4.67 5.99 4.34 6.98 4 8 C2.68 7.67 1.36 7.34 0 7 C-0.99 9.97 -1.98 12.94 -3 16 C-3.66 16 -4.32 16 -5 16 C-5 15.01 -5 14.02 -5 13 C-4.34 13 -3.68 13 -3 13 C-3 12.34 -3 11.68 -3 11 C-3.99 11.33 -4.98 11.66 -6 12 C-5.57630928 10.3713449 -5.1355377 8.74712622 -4.6875 7.125 C-4.44386719 6.22007812 -4.20023438 5.31515625 -3.94921875 4.3828125 C-3 2 -3 2 0 0 Z " fill="#C99C37" transform="translate(192,159)"/>
<path d="M0 0 C1.65 0 3.3 0 5 0 C4.67 1.32 4.34 2.64 4 4 C4.66 4 5.32 4 6 4 C6.12375 4.763125 6.2475 5.52625 6.375 6.3125 C6.88102792 9.20267136 6.88102792 9.20267136 9 12 C11.05925139 12.72382467 11.05925139 12.72382467 13 13 C12.01 13 11.02 13 10 13 C9.67 13.99 9.34 14.98 9 16 C7.35 15.67 5.7 15.34 4 15 C3.51787786 13.43840941 3.03944127 11.87568072 2.5625 10.3125 C2.29566406 9.44238281 2.02882812 8.57226562 1.75390625 7.67578125 C1.03655471 5.12974079 0.482459 2.5996577 0 0 Z " fill="#D7B443" transform="translate(249,305)"/>
<path d="M0 0 C1.32 0.99 2.64 1.98 4 3 C3.01 4.485 3.01 4.485 2 6 C1.54860541 8.0492094 1.54860541 8.0492094 1.375 10.1875 C1.25125 11.445625 1.1275 12.70375 1 14 C-0.65 14 -2.3 14 -4 14 C-3.34 12.02 -2.68 10.04 -2 8 C-2.99 7.67 -3.98 7.34 -5 7 C-5 6.01 -5 5.02 -5 4 C-5.66 3.67 -6.32 3.34 -7 3 C-5.1875 1.9375 -5.1875 1.9375 -3 1 C-2.01 1.33 -1.02 1.66 0 2 C0 1.34 0 0.68 0 0 Z " fill="#E4D460" transform="translate(277,194)"/>
<path d="M0 0 C0.66 0 1.32 0 2 0 C2.66 1.32 3.32 2.64 4 4 C7.96 4 11.92 4 16 4 C16.33 3.34 16.66 2.68 17 2 C17.99 2.66 18.98 3.32 20 4 C17 6 17 6 13 6 C13 6.66 13 7.32 13 8 C11.3954444 7.85851011 9.79136233 7.71164314 8.1875 7.5625 C7.29417969 7.48128906 6.40085937 7.40007812 5.48046875 7.31640625 C3 7 3 7 0 6 C0 4.02 0 2.04 0 0 Z " fill="#F8F88F" transform="translate(311,208)"/>
<path d="M0 0 C2 2 2 2 2 5 C2.66 5 3.32 5 4 5 C3.67 7.97 3.34 10.94 3 14 C2.34 13.67 1.68 13.34 1 13 C1 12.34 1 11.68 1 11 C-0.32 11 -1.64 11 -3 11 C-3 7.7 -3 4.4 -3 1 C-2.01 0.67 -1.02 0.34 0 0 Z " fill="#C8942F" transform="translate(226,199)"/>
<path d="M0 0 C2.97 0.495 2.97 0.495 6 1 C6 1.66 6 2.32 6 3 C8.31 3 10.62 3 13 3 C13 3.33 13 3.66 13 4 C3.43 4 -6.14 4 -16 4 C-15.67 3.34 -15.34 2.68 -15 2 C-12.45058627 1.68758629 -9.99638487 1.48696579 -7.4375 1.375 C-6.72658203 1.33632812 -6.01566406 1.29765625 -5.28320312 1.2578125 C-3.52257575 1.16328217 -1.76132272 1.08054183 0 1 C0 0.67 0 0.34 0 0 Z " fill="#A87C26" transform="translate(295,232)"/>
<path d="M0 0 C1.65 0 3.3 0 5 0 C5.33 0.99 5.66 1.98 6 3 C8.97 3.495 8.97 3.495 12 4 C12 3.34 12 2.68 12 2 C15.3 2.33 18.6 2.66 22 3 C21.67 4.32 21.34 5.64 21 7 C18.525 6.505 18.525 6.505 16 6 C16 5.34 16 4.68 16 4 C15.01 4.33 14.02 4.66 13 5 C11.33541327 5.09308544 9.66718003 5.12996185 8 5.125 C6.700625 5.12886719 6.700625 5.12886719 5.375 5.1328125 C3 5 3 5 0 4 C0 2.68 0 1.36 0 0 Z " fill="#E0D464" transform="translate(247,175)"/>
<path d="M0 0 C1.98 0 3.96 0 6 0 C6.33 1.32 6.66 2.64 7 4 C9.97 4.495 9.97 4.495 13 5 C11.68 5.33 10.36 5.66 9 6 C9 6.66 9 7.32 9 8 C6.36 8 3.72 8 1 8 C0.67 5.36 0.34 2.72 0 0 Z " fill="#DCBD4D" transform="translate(232,175)"/>
<path d="M0 0 C0.99 0.33 1.98 0.66 3 1 C5.32750471 7.98251414 3.84047366 15.04892537 2 22 C1.34 22 0.68 22 0 22 C-0.9765625 15.9453125 -0.9765625 15.9453125 -1 14 C-0.34 13.34 0.32 12.68 1 12 C1.45811675 10.02764667 1.45811675 10.02764667 1.625 7.875 C1.74875 6.59625 1.8725 5.3175 2 4 C1.34 4 0.68 4 0 4 C0 2.68 0 1.36 0 0 Z " fill="#E3CA6E" transform="translate(171,189)"/>
<path d="M0 0 C0.66 0 1.32 0 2 0 C1.50269348 4.97306516 0.44697666 8.63799813 -2 13 C-3.32 12.67 -4.64 12.34 -6 12 C-4.83184255 7.03533083 -3.64757179 3.7615584 0 0 Z " fill="#D9B94F" transform="translate(177,177)"/>
<path d="M0 0 C1.98 0 3.96 0 6 0 C5.67 2.31 5.34 4.62 5 7 C2.36 7.33 -0.28 7.66 -3 8 C-3.33 6.35 -3.66 4.7 -4 3 C-3.01 2.67 -2.02 2.34 -1 2 C-0.67 1.34 -0.34 0.68 0 0 Z " fill="#F9F8EF" transform="translate(277,270)"/>
<path d="M0 0 C2.64 0.33 5.28 0.66 8 1 C8 1.66 8 2.32 8 3 C5.69 3 3.38 3 1 3 C1 3.66 1 4.32 1 5 C1.66 5.33 2.32 5.66 3 6 C2.67 7.32 2.34 8.64 2 10 C0.35 10 -1.3 10 -3 10 C-3 8.68 -3 7.36 -3 6 C-3.66 5.67 -4.32 5.34 -5 5 C-3.35 4.67 -1.7 4.34 0 4 C0 2.68 0 1.36 0 0 Z " fill="#BAA14D" transform="translate(282,164)"/>
<path d="M0 0 C0.66 0 1.32 0 2 0 C2.33 1.65 2.66 3.3 3 5 C3.99 5.33 4.98 5.66 6 6 C6 7.32 6 8.64 6 10 C3.69 10.33 1.38 10.66 -1 11 C-2.23076923 4.6 -2.23076923 4.6 -1.0625 1.5625 C-0.711875 1.046875 -0.36125 0.53125 0 0 Z " fill="#EDE66F" transform="translate(259,165)"/>
<path d="M0 0 C1.485 0.99 1.485 0.99 3 2 C2.67 3.32 2.34 4.64 2 6 C4.97 6.99 7.94 7.98 11 9 C9 13 9 13 6.875 13.75 C5.946875 13.87375 5.946875 13.87375 5 14 C4.34 13.01 3.68 12.02 3 11 C1.9171875 9.8553125 1.9171875 9.8553125 0.8125 8.6875 C-1 6 -1 6 -0.75 2.6875 C-0.5025 1.800625 -0.255 0.91375 0 0 Z " fill="#D5AD39" transform="translate(255,307)"/>
<path d="M0 0 C0.33 0 0.66 0 1 0 C1 1.98 1 3.96 1 6 C1.94875 5.814375 2.8975 5.62875 3.875 5.4375 C7 5 7 5 9 6 C9 5.34 9 4.68 9 4 C9.99 4.33 10.98 4.66 12 5 C11.67 5.66 11.34 6.32 11 7 C10.01 7 9.02 7 8 7 C8 7.66 8 8.32 8 9 C6.35 9 4.7 9 3 9 C3 9.99 3 10.98 3 12 C2.01 11.67 1.02 11.34 0 11 C0 7.37 0 3.74 0 0 Z " fill="#C7A638" transform="translate(232,177)"/>
<path d="M0 0 C0.99 0 1.98 0 3 0 C3.33 0.66 3.66 1.32 4 2 C5.32 1.67 6.64 1.34 8 1 C8 1.66 8 2.32 8 3 C8.66 3 9.32 3 10 3 C10.33 2.01 10.66 1.02 11 0 C11.66 2.31 12.32 4.62 13 7 C10.69 7 8.38 7 6 7 C6 6.01 6 5.02 6 4 C3.03 3.505 3.03 3.505 0 3 C0 2.01 0 1.02 0 0 Z " fill="#EEF2E8" transform="translate(232,270)"/>
<path d="M0 0 C2.31 0 4.62 0 7 0 C7 0.99 7 1.98 7 3 C8.98 3 10.96 3 13 3 C13.33 3.99 13.66 4.98 14 6 C12.02 6.66 10.04 7.32 8 8 C8 7.34 8 6.68 8 6 C7.34 6 6.68 6 6 6 C6 5.34 6 4.68 6 4 C4.02 3.34 2.04 2.68 0 2 C0 1.34 0 0.68 0 0 Z " fill="#D6B043" transform="translate(306,227)"/>
<path d="M0 0 C0.99 0.66 1.98 1.32 3 2 C3.99 2 4.98 2 6 2 C6 2.66 6 3.32 6 4 C6.66 4.33 7.32 4.66 8 5 C2.58461538 9.06153846 2.58461538 9.06153846 -0.375 8.75 C-0.91125 8.5025 -1.4475 8.255 -2 8 C-1.125 1.125 -1.125 1.125 0 0 Z " fill="#C79D2F" transform="translate(266,214)"/>
<path d="M0 0 C0 0.66 0 1.32 0 2 C1.2375 1.979375 2.475 1.95875 3.75 1.9375 C6.6640825 1.93233319 9.20953327 2.06984442 12 3 C12 3.66 12 4.32 12 5 C10.35 5 8.7 5 7 5 C7 4.34 7 3.68 7 3 C5.02 3 3.04 3 1 3 C1 3.66 1 4.32 1 5 C-1.64 5 -4.28 5 -7 5 C-6.625 3.0625 -6.625 3.0625 -6 1 C-4 0 -4 0 0 0 Z " fill="#EBDC6A" transform="translate(215,153)"/>
<path d="M0 0 C0.99 0.33 1.98 0.66 3 1 C3 1.66 3 2.32 3 3 C3.99 3.33 4.98 3.66 6 4 C5.34 4 4.68 4 4 4 C4 4.66 4 5.32 4 6 C4.99 6 5.98 6 7 6 C7 6.99 7 7.98 7 9 C4.69 8.67 2.38 8.34 0 8 C-0.66 6.02 -1.32 4.04 -2 2 C-1.34 2 -0.68 2 0 2 C0 1.34 0 0.68 0 0 Z " fill="#DEC35F" transform="translate(232,228)"/>
<path d="M0 0 C1.65 0 3.3 0 5 0 C4.67 1.65 4.34 3.3 4 5 C4.66 5 5.32 5 6 5 C6 6.32 6 7.64 6 9 C4.02 9 2.04 9 0 9 C0 6.03 0 3.06 0 0 Z " fill="#F4EF6F" transform="translate(301,201)"/>
<path d="M0 0 C2.31 0.33 4.62 0.66 7 1 C6.34 1.66 5.68 2.32 5 3 C5.32041397 5.60280568 5.32041397 5.60280568 6 8 C3.03 7.505 3.03 7.505 0 7 C0 6.01 0 5.02 0 4 C-0.66 4 -1.32 4 -2 4 C-1.34 2.68 -0.68 1.36 0 0 Z " fill="#CCBB5B" transform="translate(266,163)"/>
<path d="M0 0 C4.95 0 9.9 0 15 0 C14 2 14 2 11.4375 3.1875 C7.1803944 4.19372496 4.28929715 3.73953399 0 3 C0 2.01 0 1.02 0 0 Z " fill="#E3C75E" transform="translate(284,281)"/>
<path d="M0 0 C0.33 0 0.66 0 1 0 C3.40913143 11.68168763 3.40913143 11.68168763 1.875 16.625 C0.07847018 18.90060444 -1.54209828 20.47440583 -4 22 C-3.46700621 19.33503105 -2.68918086 17.39079449 -1.4375 14.9375 C0.72034893 10.13995239 0.25154878 5.15209164 0 0 Z " fill="#D2B24E" transform="translate(278,200)"/>
<path d="M0 0 C0.99 0.33 1.98 0.66 3 1 C2.67 1.99 2.34 2.98 2 4 C3.65 3.67 5.3 3.34 7 3 C6.34 4.98 5.68 6.96 5 9 C2.5625 8.625 2.5625 8.625 0 8 C-1.43088528 5.13822943 -0.59991697 3.06624227 0 0 Z " fill="#D0AA39" transform="translate(262,197)"/>
<path d="M0 0 C3.3 0.33 6.6 0.66 10 1 C10 1.99 10 2.98 10 4 C7.36 3.67 4.72 3.34 2 3 C2.33 3.99 2.66 4.98 3 6 C1.68 6.33 0.36 6.66 -1 7 C-0.67 4.69 -0.34 2.38 0 0 Z " fill="#F7F3EB" transform="translate(255,270)"/>
<path d="M0 0 C1.98 0 3.96 0 6 0 C6.33 1.65 6.66 3.3 7 5 C7.99 5 8.98 5 10 5 C10 5.99 10 6.98 10 8 C9.01 8 8.02 8 7 8 C7 7.34 7 6.68 7 6 C6.21625 5.7525 5.4325 5.505 4.625 5.25 C1.67682892 3.84610901 1.0975223 2.99324263 0 0 Z " fill="#D2AD3C" transform="translate(236,215)"/>
<path d="M0 0 C0 0.66 0 1.32 0 2 C-0.66 2 -1.32 2 -2 2 C-2.33 2.99 -2.66 3.98 -3 5 C-5.06640625 5.73046875 -5.06640625 5.73046875 -7.5625 6.1875 C-8.38878906 6.34605469 -9.21507812 6.50460938 -10.06640625 6.66796875 C-11.02353516 6.83232422 -11.02353516 6.83232422 -12 7 C-9.61791258 1.50985565 -5.90307274 0 0 0 Z " fill="#CD983C" transform="translate(189,170)"/>
<path d="M0 0 C2.31 0.66 4.62 1.32 7 2 C7.33 3.98 7.66 5.96 8 8 C7.34 8 6.68 8 6 8 C6 7.34 6 6.68 6 6 C3.03 5.505 3.03 5.505 0 5 C0 3.35 0 1.7 0 0 Z " fill="#C5932E" transform="translate(295,227)"/>
<path d="M0 0 C0.66 0 1.32 0 2 0 C2 4.62 2 9.24 2 14 C0 11 0 11 0 8 C-0.66 8 -1.32 8 -2 8 C-2.33 6.35 -2.66 4.7 -3 3 C-2.01 3 -1.02 3 0 3 C0 2.01 0 1.02 0 0 Z " fill="#9E8336" transform="translate(291,165)"/>
<path d="M0 0 C1.5625 1.1875 1.5625 1.1875 3 3 C2.6875 5.6875 2.6875 5.6875 2 8 C1.34 8 0.68 8 0 8 C0 8.99 0 9.98 0 11 C-0.66 11 -1.32 11 -2 11 C-2 7.7 -2 4.4 -2 1 C-1.34 0.67 -0.68 0.34 0 0 Z " fill="#E3CF61" transform="translate(282,199)"/>
<path d="M0 0 C1.32 0.33 2.64 0.66 4 1 C-1.9470852 9.58834081 -1.9470852 9.58834081 -6.98046875 10.59765625 C-9.70419699 10.56594402 -12.3070533 10.40097184 -15 10 C-15 9.67 -15 9.34 -15 9 C-13.86111328 8.85304687 -13.86111328 8.85304687 -12.69921875 8.703125 C-11.70535156 8.55359375 -10.71148437 8.4040625 -9.6875 8.25 C-8.70136719 8.11078125 -7.71523438 7.9715625 -6.69921875 7.828125 C-3.47834143 6.83995424 -2.64974136 5.88304315 -1 3 C-0.67 2.01 -0.34 1.02 0 0 Z " fill="#BBA02E" transform="translate(323,226)"/>
<path d="M0 0 C0.33 0.66 0.66 1.32 1 2 C2.98 1.67 4.96 1.34 7 1 C6.67 2.32 6.34 3.64 6 5 C4.68 5 3.36 5 2 5 C1.67 6.32 1.34 7.64 1 9 C-1 6 -1 6 -2 3 C-1.34 2.01 -0.68 1.02 0 0 Z " fill="#EDDF61" transform="translate(321,221)"/>
<path d="M0 0 C0.33 0.66 0.66 1.32 1 2 C2.32 1.67 3.64 1.34 5 1 C5 3.97 5 6.94 5 10 C3.68 9.67 2.36 9.34 1 9 C0.67 6.03 0.34 3.06 0 0 Z " fill="#B5852B" transform="translate(241,200)"/>
<path d="M0 0 C0 0.66 0 1.32 0 2 C-2.97 1.01 -5.94 0.02 -9 -1 C-9.33 0.32 -9.66 1.64 -10 3 C-10 1.68 -10 0.36 -10 -1 C-11.32 -1.33 -12.64 -1.66 -14 -2 C-8.77666097 -5.36989615 -4.942391 -2.6057922 0 0 Z " fill="#F4EA80" transform="translate(269,183)"/>
<path d="M0 0 C3.3 0.66 6.6 1.32 10 2 C9.67 2.99 9.34 3.98 9 5 C7.35 4.67 5.7 4.34 4 4 C3.67 4.66 3.34 5.32 3 6 C1.68 6 0.36 6 -1 6 C-0.67 4.02 -0.34 2.04 0 0 Z " fill="#E4DC5E" transform="translate(260,182)"/>
<path d="M0 0 C-0.33 0.99 -0.66 1.98 -1 3 C-1.66 2.67 -2.32 2.34 -3 2 C-3.99 4.97 -4.98 7.94 -6 11 C-6.66 11 -7.32 11 -8 11 C-8 10.01 -8 9.02 -8 8 C-7.34 8 -6.68 8 -6 8 C-6 7.34 -6 6.68 -6 6 C-6.99 6.33 -7.98 6.66 -9 7 C-8.67 5.68 -8.34 4.36 -8 3 C-6.68 3 -5.36 3 -4 3 C-4 2.34 -4 1.68 -4 1 C-2 0 -2 0 0 0 Z " fill="#BB8427" transform="translate(195,164)"/>
<path d="M0 0 C0.99386719 0.00902344 1.98773438 0.01804688 3.01171875 0.02734375 C4.15060547 0.04474609 4.15060547 0.04474609 5.3125 0.0625 C4.9825 0.7225 4.6525 1.3825 4.3125 2.0625 C0.02480214 3.36180238 -4.25260345 3.13766774 -8.6875 3.0625 C-8.6875 2.4025 -8.6875 1.7425 -8.6875 1.0625 C-5.53819107 0.01273036 -3.29935544 -0.03881595 0 0 Z " fill="#EFE682" transform="translate(223.6875,151.9375)"/>
<path d="M0 0 C0.99 0 1.98 0 3 0 C3 1.98 3 3.96 3 6 C2.34 6 1.68 6 1 6 C1.33 6.99 1.66 7.98 2 9 C2.66 9 3.32 9 4 9 C3 12 3 12 1 13 C-0.32229189 10.35541621 -0.09677194 8.32238699 -0.0625 5.375 C-0.05347656 4.37210938 -0.04445312 3.36921875 -0.03515625 2.3359375 C-0.02355469 1.56507813 -0.01195312 0.79421875 0 0 Z " fill="#A67B1D" transform="translate(230,199)"/>
<path d="M0 0 C0.33 1.32 0.66 2.64 1 4 C2.65 4 4.3 4 6 4 C6.33 4.66 6.66 5.32 7 6 C4.36 5.67 1.72 5.34 -1 5 C-1 5.66 -1 6.32 -1 7 C-1.99 7 -2.98 7 -4 7 C-4.33 7.99 -4.66 8.98 -5 10 C-5 8.35 -5 6.7 -5 5 C-4.34 4.67 -3.68 4.34 -3 4 C-1.96854629 2.69084721 -0.96457834 1.35917857 0 0 Z " fill="#AF8125" transform="translate(252,196)"/>
<path d="M0 0 C0.99 0 1.98 0 3 0 C3 0.66 3 1.32 3 2 C3.99 2.33 4.98 2.66 6 3 C5.34 3 4.68 3 4 3 C4 3.66 4 4.32 4 5 C3.34 5 2.68 5 2 5 C1.67 5.66 1.34 6.32 1 7 C-1.5625 7.625 -1.5625 7.625 -4 8 C-3.75 6.125 -3.75 6.125 -3 4 C-0.9375 2.75 -0.9375 2.75 1 2 C0.67 1.34 0.34 0.68 0 0 Z " fill="#ECE26C" transform="translate(236,159)"/>
<path d="M0 0 C-0.33 1.32 -0.66 2.64 -1 4 C-2.98 4.33 -4.96 4.66 -7 5 C-7.33 3.68 -7.66 2.36 -8 1 C-5.10765685 0.17361624 -3.11257569 0 0 0 Z " fill="#D3BA51" transform="translate(180,210)"/>
<path d="M0 0 C1.258125 -0.04125 2.51625 -0.0825 3.8125 -0.125 C4.52019531 -0.14820313 5.22789062 -0.17140625 5.95703125 -0.1953125 C8 0 8 0 11 2 C11 2.99 11 3.98 11 5 C8.69 4.67 6.38 4.34 4 4 C4 3.34 4 2.68 4 2 C2.68 2 1.36 2 0 2 C0 1.34 0 0.68 0 0 Z " fill="#E4CA62" transform="translate(254,190)"/>
<path d="M0 0 C0.99 0 1.98 0 3 0 C2.34 1.98 1.68 3.96 1 6 C-1.3431213 5.74438677 -3.67843403 5.40729228 -6 5 C-6.33 4.34 -6.66 3.68 -7 3 C-5.02 3 -3.04 3 -1 3 C-0.67 2.01 -0.34 1.02 0 0 Z " fill="#F3EF8F" transform="translate(257,163)"/>
<path d="M0 0 C1.32 0.33 2.64 0.66 4 1 C4 1.99 4 2.98 4 4 C1.1875 6.25 1.1875 6.25 -2 8 C-2.99 7.67 -3.98 7.34 -5 7 C-4.360625 6.21625 -3.72125 5.4325 -3.0625 4.625 C-1.01857687 2.20460719 -1.01857687 2.20460719 0 0 Z " fill="#C89630" transform="translate(280,214)"/>
<path d="M0 0 C1.32 0 2.64 0 4 0 C4 2.31 4 4.62 4 7 C2.125 7.625 2.125 7.625 0 8 C-0.66 7.34 -1.32 6.68 -2 6 C-1.01 5.67 -0.02 5.34 1 5 C0.34 4.67 -0.32 4.34 -1 4 C-0.67 2.68 -0.34 1.36 0 0 Z " fill="#AD770F" transform="translate(236,194)"/>
<path d="M0 0 C0.66 0.33 1.32 0.66 2 1 C2 3.64 2 6.28 2 9 C1.01 9.33 0.02 9.66 -1 10 C-1.33 7.36 -1.66 4.72 -2 2 C-1.34 2 -0.68 2 0 2 C0 1.34 0 0.68 0 0 Z " fill="#EBDC72" transform="translate(275,187)"/>
<path d="M0 0 C2.00720923 0.28674418 4.0085944 0.61866701 6 1 C6 2.98 6 4.96 6 7 C5.67 6.34 5.34 5.68 5 5 C3.35 5 1.7 5 0 5 C-0.5625 3.0625 -0.5625 3.0625 -1 1 C-0.67 0.67 -0.34 0.34 0 0 Z " fill="#F6F6F5" transform="translate(185,267)"/>
<path d="M0 0 C0.66 0 1.32 0 2 0 C2 0.66 2 1.32 2 2 C2.66 2.33 3.32 2.66 4 3 C3.67 4.32 3.34 5.64 3 7 C2.34 7 1.68 7 1 7 C1 6.34 1 5.68 1 5 C-0.65 4.67 -2.3 4.34 -4 4 C-4 3.34 -4 2.68 -4 2 C-2.68 2 -1.36 2 0 2 C0 1.34 0 0.68 0 0 Z " fill="#E2C64E" transform="translate(318,225)"/>
<path d="M0 0 C0 1.32 0 2.64 0 4 C-2.97 4 -5.94 4 -9 4 C-9 3.34 -9 2.68 -9 2 C-2.25 0 -2.25 0 0 0 Z " fill="#FEFEFB" transform="translate(295,273)"/>
<path d="M0 0 C1.32 0.33 2.64 0.66 4 1 C4 3.31 4 5.62 4 8 C3.34 8 2.68 8 2 8 C2 7.34 2 6.68 2 6 C0.35 6 -1.3 6 -3 6 C-1.68 5.01 -0.36 4.02 1 3 C0.67 2.01 0.34 1.02 0 0 Z " fill="#E0DF66" transform="translate(328,209)"/>
<path d="M0 0 C0.66 0.33 1.32 0.66 2 1 C2 3.97 2 6.94 2 10 C0.35 10 -1.3 10 -3 10 C-2.67 8.68 -2.34 7.36 -2 6 C-1.34 6 -0.68 6 0 6 C-0.2784375 4.7934375 -0.2784375 4.7934375 -0.5625 3.5625 C-0.706875 2.716875 -0.85125 1.87125 -1 1 C-0.67 0.67 -0.34 0.34 0 0 Z " fill="#C09A3E" transform="translate(259,199)"/>
<path d="M0 0 C0.99 0 1.98 0 3 0 C3 2.64 3 5.28 3 8 C1.35 8 -0.3 8 -2 8 C-1.67 7.05125 -1.34 6.1025 -1 5.125 C0.10159191 2.22937548 0.10159191 2.22937548 0 0 Z " fill="#DEC35D" transform="translate(275,200)"/>
<path d="M0 0 C2.31 0 4.62 0 7 0 C7 0.66 7 1.32 7 2 C7.66 2.33 8.32 2.66 9 3 C4.94568308 4.15837626 2.78187881 3.83691257 -1 2 C-0.67 1.34 -0.34 0.68 0 0 Z " fill="#F7F077" transform="translate(294,196)"/>
<path d="M0 0 C0.66 0 1.32 0 2 0 C2 0.99 2 1.98 2 3 C5.465 2.505 5.465 2.505 9 2 C8.01 2.33 7.02 2.66 6 3 C5.67 3.99 5.34 4.98 5 6 C3.35 5.67 1.7 5.34 0 5 C0 3.35 0 1.7 0 0 Z " fill="#DBBD53" transform="translate(253,315)"/>
<path d="M0 0 C2.97 0.495 2.97 0.495 6 1 C6 1.66 6 2.32 6 3 C4.68 3 3.36 3 2 3 C2 3.99 2 4.98 2 6 C1.01 5.67 0.02 5.34 -1 5 C-0.67 3.35 -0.34 1.7 0 0 Z " fill="#D2A73D" transform="translate(248,218)"/>
<path d="M0 0 C0.99 0 1.98 0 3 0 C2.6875 1.9375 2.6875 1.9375 2 4 C1.01 4.33 0.02 4.66 -1 5 C-1 4.34 -1 3.68 -1 3 C-2.32 3.33 -3.64 3.66 -5 4 C-5.33 3.01 -5.66 2.02 -6 1 C-4.7934375 1.0309375 -4.7934375 1.0309375 -3.5625 1.0625 C-1.06645115 1.29633621 -1.06645115 1.29633621 0 0 Z " fill="#D4AA45" transform="translate(273,213)"/>
<path d="M0 0 C0.66 0 1.32 0 2 0 C2.66 1.32 3.32 2.64 4 4 C5.98 4 7.96 4 10 4 C10 4.66 10 5.32 10 6 C6.7 6 3.4 6 0 6 C0 4.02 0 2.04 0 0 Z " fill="#F0EE85" transform="translate(311,208)"/>
<path d="M0 0 C0.33 0 0.66 0 1 0 C1 3.3 1 6.6 1 10 C-2.3 10 -5.6 10 -9 10 C-9 9.67 -9 9.34 -9 9 C-6.36 8.34 -3.72 7.68 -1 7 C-0.67 4.69 -0.34 2.38 0 0 Z " fill="#F0F6F8" transform="translate(315,257)"/>
<path d="M0 0 C1.65 0 3.3 0 5 0 C4.67 0.66 4.34 1.32 4 2 C1.49609375 2.6328125 1.49609375 2.6328125 -1.5625 3.125 C-3.08037109 3.37636719 -3.08037109 3.37636719 -4.62890625 3.6328125 C-5.80259766 3.81457031 -5.80259766 3.81457031 -7 4 C-7.33 3.34 -7.66 2.68 -8 2 C-2.25 0.875 -2.25 0.875 0 2 C0 1.34 0 0.68 0 0 Z " fill="#AB7915" transform="translate(260,224)"/>
<path d="M0 0 C2.475 0.495 2.475 0.495 5 1 C5 2.32 5 3.64 5 5 C3.35 5.33 1.7 5.66 0 6 C0 4.02 0 2.04 0 0 Z " fill="#E7E47A" transform="translate(233,151)"/>
<path d="M0 0 C3.3 0 6.6 0 10 0 C9.67 0.99 9.34 1.98 9 3 C6.03 2.67 3.06 2.34 0 2 C0 1.34 0 0.68 0 0 Z " fill="#C8B144" transform="translate(200,227)"/>
<path d="M0 0 C1.65 0 3.3 0 5 0 C4.67 1.32 4.34 2.64 4 4 C2.02 4.33 0.04 4.66 -2 5 C-1.34 3.35 -0.68 1.7 0 0 Z " fill="#D7B549" transform="translate(238,186)"/>
<path d="M0 0 C1.32 0 2.64 0 4 0 C4.66 1.65 5.32 3.3 6 5 C4.68 5 3.36 5 2 5 C2 4.34 2 3.68 2 3 C1.01 2.67 0.02 2.34 -1 2 C-0.67 1.34 -0.34 0.68 0 0 Z " fill="#C3AC4C" transform="translate(176,214)"/>
<path d="M0 0 C0 0.66 0 1.32 0 2 C-0.99 2 -1.98 2 -3 2 C-3.33 3.98 -3.66 5.96 -4 8 C-4.99 7.34 -5.98 6.68 -7 6 C-6.1875 3.5625 -6.1875 3.5625 -5 1 C-2 0 -2 0 0 0 Z " fill="#D9B75B" transform="translate(200,155)"/>
<path d="M0 0 C1.32 0.33 2.64 0.66 4 1 C4 1.66 4 2.32 4 3 C4.99 3 5.98 3 7 3 C7 3.66 7 4.32 7 5 C7.66 5 8.32 5 9 5 C9 5.66 9 6.32 9 7 C5.13066838 6.42676569 2.84777943 4.61046448 0 2 C0 1.34 0 0.68 0 0 Z " fill="#BDA33E" transform="translate(181,221)"/>
<path d="M0 0 C1.32 0.33 2.64 0.66 4 1 C3.67 3.31 3.34 5.62 3 8 C2.34 8 1.68 8 1 8 C0.67 5.36 0.34 2.72 0 0 Z " fill="#EBD97B" transform="translate(170,203)"/>
<path d="M0 0 C0.66 0 1.32 0 2 0 C1.50510384 3.66223158 0.94323463 5.66993926 -2 8 C-2.33 8 -2.66 8 -3 8 C-3 6.02 -3 4.04 -3 2 C-2.01 2.33 -1.02 2.66 0 3 C0 2.01 0 1.02 0 0 Z " fill="#A8811B" transform="translate(235,186)"/>
<path d="M0 0 C1.32 0.33 2.64 0.66 4 1 C2.68 1.33 1.36 1.66 0 2 C0.33 3.98 0.66 5.96 1 8 C0.34 8 -0.32 8 -1 8 C-1.625 5.6875 -1.625 5.6875 -2 3 C-1.34 2.01 -0.68 1.02 0 0 Z " fill="#C7AF30" transform="translate(244,184)"/>
<path d="M0 0 C0.99 0.33 1.98 0.66 3 1 C3 1.66 3 2.32 3 3 C3.99 3 4.98 3 6 3 C6 3.66 6 4.32 6 5 C4.02 5.33 2.04 5.66 0 6 C0 4.02 0 2.04 0 0 Z " fill="#D5B042" transform="translate(233,177)"/>
<path d="M0 0 C2.31 0.33 4.62 0.66 7 1 C6.67 2.32 6.34 3.64 6 5 C4.35 4.67 2.7 4.34 1 4 C0.67 2.68 0.34 1.36 0 0 Z " fill="#E2DE69" transform="translate(262,177)"/>
<path d="M0 0 C2.475 0.495 2.475 0.495 5 1 C5.33 2.65 5.66 4.3 6 6 C6.66 6 7.32 6 8 6 C7.67 6.66 7.34 7.32 7 8 C6.34 7.67 5.68 7.34 5 7 C5 6.01 5 5.02 5 4 C4.360625 3.896875 3.72125 3.79375 3.0625 3.6875 C2.381875 3.460625 1.70125 3.23375 1 3 C0.67 2.01 0.34 1.02 0 0 Z " fill="#BA9847" transform="translate(286,173)"/>
<path d="M0 0 C0.99 0 1.98 0 3 0 C3 0.66 3 1.32 3 2 C4.65 2 6.3 2 8 2 C6.75 3.5 6.75 3.5 5 5 C3.68 5 2.36 5 1 5 C0.67 3.35 0.34 1.7 0 0 Z " fill="#CC892B" transform="translate(264,315)"/>
<path d="M0 0 C1.65 0 3.3 0 5 0 C4.34 2.31 3.68 4.62 3 7 C0 3.375 0 3.375 0 0 Z " fill="#D2A93B" transform="translate(249,305)"/>
<path d="M0 0 C0.99 0.33 1.98 0.66 3 1 C4.1875 4.0625 4.1875 4.0625 5 7 C1.125 6.125 1.125 6.125 0 5 C-0.04063832 3.33382885 -0.042721 1.66611905 0 0 Z " fill="#CCA03E" transform="translate(240,282)"/>
<path d="M0 0 C0.99 0.33 1.98 0.66 3 1 C3 2.32 3 3.64 3 5 C2.34 5 1.68 5 1 5 C0.67 5.99 0.34 6.98 0 8 C-0.38063221 5.6739143 -0.71269945 3.33944736 -1 1 C-0.67 0.67 -0.34 0.34 0 0 Z " fill="#EBE9E0" transform="translate(285,270)"/>
<path d="M0 0 C0.99 0 1.98 0 3 0 C3 0.66 3 1.32 3 2 C3.66 2.33 4.32 2.66 5 3 C2.525 4.485 2.525 4.485 0 6 C0 4.02 0 2.04 0 0 Z " fill="#B97D14" transform="translate(269,216)"/>
<path d="M0 0 C0.33 0.66 0.66 1.32 1 2 C1.99 2.33 2.98 2.66 4 3 C4.33 3.99 4.66 4.98 5 6 C3.68 6.33 2.36 6.66 1 7 C0.67 4.69 0.34 2.38 0 0 Z " fill="#BC9D32" transform="translate(234,208)"/>
<path d="M0 0 C0.66 0 1.32 0 2 0 C2 0.99 2 1.98 2 3 C3.32 3.33 4.64 3.66 6 4 C6 4.66 6 5.32 6 6 C4.68 6.33 3.36 6.66 2 7 C2 6.34 2 5.68 2 5 C1.34 5 0.68 5 0 5 C0 3.35 0 1.7 0 0 Z " fill="#CDAD47" transform="translate(272,204)"/>
<path d="M0 0 C2.97 0.495 2.97 0.495 6 1 C5.6875 2.9375 5.6875 2.9375 5 5 C4.01 5.33 3.02 5.66 2 6 C1.855625 5.38125 1.71125 4.7625 1.5625 4.125 C1.06847775 1.96741678 1.06847775 1.96741678 0 0 Z " fill="#EEE46B" transform="translate(278,194)"/>
<path d="M0 0 C0.99 0.33 1.98 0.66 3 1 C2.67 2.32 2.34 3.64 2 5 C1.34 5 0.68 5 0 5 C-0.33 5.66 -0.66 6.32 -1 7 C-1.625 5.1875 -1.625 5.1875 -2 3 C-1.34 2.01 -0.68 1.02 0 0 Z " fill="#DDC15E" transform="translate(174,181)"/>
<path d="M0 0 C-5.41538462 3.07692308 -5.41538462 3.07692308 -8.375 2.6875 C-9.179375 2.3471875 -9.179375 2.3471875 -10 2 C-9.01 2 -8.02 2 -7 2 C-7 1.34 -7 0.68 -7 0 C-3.86650268 -1.04449911 -3.01031744 -0.93423645 0 0 Z " fill="#BD7719" transform="translate(280,316)"/>
<path d="M0 0 C2.875 -0.1875 2.875 -0.1875 6 0 C6.66 0.99 7.32 1.98 8 3 C5.03 3 2.06 3 -1 3 C-0.67 2.01 -0.34 1.02 0 0 Z " fill="#E3E3C1" transform="translate(234,236)"/>
<path d="M0 0 C2.31 0 4.62 0 7 0 C7 0.99 7 1.98 7 3 C5.02 3 3.04 3 1 3 C0.67 2.01 0.34 1.02 0 0 Z " fill="#B6891C" transform="translate(250,221)"/>
<path d="M0 0 C-1.32 0.33 -2.64 0.66 -4 1 C-4 1.66 -4 2.32 -4 3 C-5.65 3.33 -7.3 3.66 -9 4 C-8.67 3.01 -8.34 2.02 -8 1 C-5.29120665 -0.35439668 -2.99066732 -0.06501451 0 0 Z " fill="#D5BA5B" transform="translate(258,189)"/>
<path d="M0 0 C2.7856426 1.3928213 3.52376361 3.30426398 5 6 C5.33 6.99 5.66 7.98 6 9 C4 9 4 9 1.875 7.3125 C0 5 0 5 -0.25 2.25 C-0.1675 1.5075 -0.085 0.765 0 0 Z " fill="#B3A149" transform="translate(294,181)"/>
<path d="M0 0 C1.98 0 3.96 0 6 0 C6 0.66 6 1.32 6 2 C4.35 2 2.7 2 1 2 C1 2.99 1 3.98 1 5 C0.01 4.67 -0.98 4.34 -2 4 C-1.34 2.68 -0.68 1.36 0 0 Z " fill="#C1922C" transform="translate(234,184)"/>
<path d="M0 0 C1.98 0 3.96 0 6 0 C6 1.32 6 2.64 6 4 C5.34 4 4.68 4 4 4 C3.67 3.34 3.34 2.68 3 2 C2.01 2.66 1.02 3.32 0 4 C0 2.68 0 1.36 0 0 Z " fill="#C7BC4D" transform="translate(253,182)"/>
<path d="M0 0 C0.66 0 1.32 0 2 0 C2 2.31 2 4.62 2 7 C1.67 6.34 1.34 5.68 1 5 C-0.32 5 -1.64 5 -3 5 C-3 4.34 -3 3.68 -3 3 C-2.01 3 -1.02 3 0 3 C0 2.01 0 1.02 0 0 Z " fill="#947536" transform="translate(291,165)"/>
<path d="M0 0 C2.64 0.33 5.28 0.66 8 1 C8 1.66 8 2.32 8 3 C5.36 3 2.72 3 0 3 C0 2.01 0 1.02 0 0 Z " fill="#BC9F5D" transform="translate(282,164)"/>
<path d="M0 0 C0.66 0.33 1.32 0.66 2 1 C0 4 0 4 -2.125 4.6875 C-2.74375 4.790625 -3.3625 4.89375 -4 5 C-4.33 4.01 -4.66 3.02 -5 2 C-2.625 0.9375 -2.625 0.9375 0 0 Z " fill="#C8A237" transform="translate(264,316)"/>
<path d="M0 0 C0.33 0 0.66 0 1 0 C2 3 3 6 4 9 C2.68 8.67 1.36 8.34 0 8 C0 5.36 0 2.72 0 0 Z " fill="#D6A941" transform="translate(246,295)"/>
<path d="M0 0 C1.65 0 3.3 0 5 0 C5 0.99 5 1.98 5 3 C3.35 3.33 1.7 3.66 0 4 C-0.33 3.34 -0.66 2.68 -1 2 C-0.67 1.34 -0.34 0.68 0 0 Z " fill="#D9AD4C" transform="translate(240,233)"/>
<path d="M0 0 C1.98 0 3.96 0 6 0 C6 0.99 6 1.98 6 3 C4.35 3 2.7 3 1 3 C0.67 2.01 0.34 1.02 0 0 Z " fill="#EACA59" transform="translate(223,227)"/>
<path d="M0 0 C1.32 0 2.64 0 4 0 C3.34 1.65 2.68 3.3 2 5 C0.68 5 -0.64 5 -2 5 C-2 4.34 -2 3.68 -2 3 C-1.34 2.67 -0.68 2.34 0 2 C0 1.34 0 0.68 0 0 Z " fill="#A67D18" transform="translate(264,208)"/>
<path d="M0 0 C0.99 0.33 1.98 0.66 3 1 C3.6875 3.0625 3.6875 3.0625 4 5 C1.69 4.67 -0.62 4.34 -3 4 C-2.01 3.67 -1.02 3.34 0 3 C0 2.01 0 1.02 0 0 Z " fill="#BB8A27" transform="translate(261,206)"/>
</svg>
