<svg width="24" height="24" viewBox="0 0 24 24" fill="none" xmlns="http://www.w3.org/2000/svg">
<g clip-path="url(#clip0_382_9898)">
<path d="M0 6C0 2.68629 2.68629 0 6 0H18C21.3137 0 24 2.68629 24 6V18C24 21.3137 21.3137 24 18 24H6C2.68629 24 0 21.3137 0 18V6Z" fill="#0C6CF2"/>
<g clip-path="url(#clip1_382_9898)">
<path d="M15.9513 11.8815L15.4829 11.7335V7.48778C16.4305 7.65976 17.1515 8.49035 17.1515 9.48676H17.8787C17.8787 8.08844 16.8332 6.92982 15.4829 6.75125V6H14.7556V6.75127C13.4053 6.92982 12.3597 8.08844 12.3597 9.48679C12.3597 10.8102 13.0263 11.7202 14.2872 12.1185L14.7556 12.2665V16.5122C13.8081 16.3403 13.087 15.5096 13.087 14.5133H12.3597C12.3597 15.9116 13.4053 17.0702 14.7556 17.2488V18H15.4829V17.2487C16.8332 17.0702 17.8787 15.9116 17.8787 14.5132C17.8787 13.1898 17.2122 12.2798 15.9513 11.8815ZM14.5063 11.425C13.538 11.1192 13.087 10.5033 13.087 9.48676C13.087 8.49035 13.808 7.65973 14.7556 7.48778V11.5038L14.5063 11.425ZM15.4829 16.5122V12.4962L15.7322 12.575C16.7005 12.8808 17.1515 13.4967 17.1515 14.5132C17.1515 15.5096 16.4305 16.3402 15.4829 16.5122Z" fill="white"/>
<path d="M8.8832 7.45432C10.0052 7.45432 10.9179 8.3671 10.9179 9.48904H11.6452C11.6452 7.96608 10.4062 6.72705 8.8832 6.72705C7.36025 6.72705 6.12122 7.96608 6.12122 9.48904V14.5105C6.12122 16.0335 7.36025 17.2725 8.8832 17.2725C10.4062 17.2725 11.6452 16.0335 11.6452 14.5105H10.9179C10.9179 15.6325 10.0052 16.5452 8.8832 16.5452C7.76126 16.5452 6.84849 15.6325 6.84849 14.5105V9.48904C6.84849 8.3671 7.76126 7.45432 8.8832 7.45432Z" fill="white"/>
</g>
</g>
<defs>
<clipPath id="clip0_382_9898">
<rect width="24" height="24" rx="12" fill="white"/>
</clipPath>
<clipPath id="clip1_382_9898">
<rect width="12" height="12" fill="white" transform="translate(6 6)"/>
</clipPath>
</defs>
</svg>
