<svg width="24" height="24" viewBox="0 0 24 24" fill="none" xmlns="http://www.w3.org/2000/svg">
<g clip-path="url(#clip0_382_9906)">
<path d="M0 6C0 2.68629 2.68629 0 6 0H18C21.3137 0 24 2.68629 24 6V18C24 21.3137 21.3137 24 18 24H6C2.68629 24 0 21.3137 0 18V6Z" fill="#0C6CF2"/>
<g clip-path="url(#clip1_382_9906)">
<path fill-rule="evenodd" clip-rule="evenodd" d="M8.3916 6H15.8965C15.9503 6.00026 16.0018 6.02174 16.0398 6.05978C16.0779 6.09782 16.0994 6.14933 16.0996 6.20312V8.05859C16.1 8.08556 16.095 8.11234 16.085 8.13737C16.075 8.16241 16.0601 8.18522 16.0412 8.20447C16.0223 8.22372 15.9998 8.23903 15.975 8.24953C15.9501 8.26003 15.9235 8.2655 15.8965 8.26563H10.5889V10.4922H14.5771C14.6308 10.4927 14.682 10.5143 14.7199 10.5523C14.7577 10.5903 14.779 10.6417 14.7793 10.6953V12.5508C14.7788 12.6043 14.7574 12.6556 14.7196 12.6935C14.6818 12.7315 14.6307 12.7531 14.5771 12.7539H10.5889V14.5195H11.7969C11.8483 14.5208 11.8972 14.5417 11.9336 14.5781C11.97 14.6145 11.9909 14.6634 11.9922 14.7148V16.1465C11.9907 16.1978 11.9697 16.2466 11.9333 16.283C11.897 16.3193 11.8482 16.3403 11.7969 16.3418H10.5889V17.7969C10.5884 17.8506 10.5668 17.902 10.5288 17.9399C10.4908 17.9779 10.4395 17.9995 10.3857 18H8.59473C8.54093 17.9997 8.48942 17.9783 8.45138 17.9402C8.41334 17.9022 8.39186 17.8507 8.3916 17.7969V16.3447H7.19531C7.14351 16.3447 7.09383 16.3241 7.05721 16.2875C7.02058 16.2509 7 16.2012 7 16.1494V14.7178C7 14.666 7.02058 14.6163 7.05721 14.5797C7.09383 14.543 7.14351 14.5225 7.19531 14.5225H8.3916V6Z" fill="white"/>
</g>
</g>
<defs>
<clipPath id="clip0_382_9906">
<rect width="24" height="24" fill="white"/>
</clipPath>
<clipPath id="clip1_382_9906">
<rect width="9.09961" height="12" fill="white" transform="translate(7 6)"/>
</clipPath>
</defs>
</svg>
