<svg width="24" height="24" viewBox="0 0 24 24" fill="none" xmlns="http://www.w3.org/2000/svg">
<g clip-path="url(#clip0_382_9889)">
<rect width="24" height="24" rx="12" fill="white"/>
<path d="M1.2 0H22.8C23.1183 0 23.4235 0.140476 23.6485 0.390524C23.8736 0.640573 24 0.979711 24 1.33333V22.6667C24 23.0203 23.8736 23.3594 23.6485 23.6095C23.4235 23.8595 23.1183 24 22.8 24H1.2C0.88174 24 0.576515 23.8595 0.351472 23.6095C0.126428 23.3594 0 23.0203 0 22.6667V1.33333C0 0.979711 0.126428 0.640573 0.351472 0.390524C0.576515 0.140476 0.88174 0 1.2 0ZM13.2 13.3333V12H16.8V9.33333H13.6968L16.2432 6.50533L14.5452 4.61867L12 7.448L9.4548 4.61867L7.7568 6.50667L10.3032 9.33333H7.2V12H10.8V13.3333H7.2V16H10.8V18.6667H13.2V16H16.8V13.3333H13.2Z" fill="#0C6CF2"/>
</g>
<defs>
<clipPath id="clip0_382_9889">
<rect width="24" height="24" rx="12" fill="white"/>
</clipPath>
</defs>
</svg>
