<svg width="24" height="24" viewBox="0 0 24 24" fill="none" xmlns="http://www.w3.org/2000/svg">
<g clip-path="url(#clip0_381_9860)">
<path d="M0 6C0 2.68629 2.68629 0 6 0H18C21.3137 0 24 2.68629 24 6V18C24 21.3137 21.3137 24 18 24H6C2.68629 24 0 21.3137 0 18V6Z" fill="#0C6CF2"/>
<path d="M15.1217 10.2148H10.7643C11.1749 8.6578 12.1673 7.90494 13.4449 7.90494C14.4429 7.90494 15.2129 8.3726 15.7605 8.80607L16.5589 7.10647C15.7148 6.39924 14.6654 6 13.4449 6C11.0209 6 9.19013 7.55133 8.6312 10.2148H7.45057L7 11.4297H8.47147C8.46007 11.6179 8.4544 11.8118 8.4544 12.0114C8.4544 12.1996 8.46007 12.3878 8.47147 12.5703H7.45057L7 13.8023H8.6312C9.19013 16.4601 11.0209 18 13.4449 18C14.6198 18 15.7091 17.6407 16.5247 16.9335L15.7148 15.2339C15.2186 15.6331 14.4487 16.0951 13.4449 16.0951C12.1616 16.0951 11.1749 15.3593 10.7643 13.8023H13.4791L14.0665 12.5703H10.5761C10.5647 12.3935 10.5589 12.2053 10.5589 12.0114C10.5589 11.8118 10.5647 11.6179 10.5761 11.4297H14.5685L15.1217 10.2148Z" fill="white"/>
</g>
<defs>
<clipPath id="clip0_381_9860">
<rect width="24" height="24" rx="12" fill="white"/>
</clipPath>
</defs>
</svg>
