<svg width="24" height="24" viewBox="0 0 24 24" fill="none" xmlns="http://www.w3.org/2000/svg">
<g clip-path="url(#clip0_382_9911)">
<path d="M0 6C0 2.68629 2.68629 0 6 0H18C21.3137 0 24 2.68629 24 6V18C24 21.3137 21.3137 24 18 24H6C2.68629 24 0 21.3137 0 18V6Z" fill="#0C6CF2"/>
<path d="M15.4688 8.25C15.6241 8.25 15.75 8.12407 15.75 7.96875V7.03125C15.75 6.87593 15.6241 6.75 15.4688 6.75H8.53125C8.37593 6.75 8.25 6.87593 8.25 7.03125V8.08003C8.25 8.23535 8.37593 8.36128 8.53125 8.36128H10.53C11.17 8.36128 11.6611 8.59467 11.959 9H8.53125C8.37593 9 8.25 9.12593 8.25 9.28125V10.2188C8.25 10.3741 8.37593 10.5 8.53125 10.5H12.2521C12.1064 11.3458 11.4796 11.8742 10.5 11.8742H8.53125C8.37593 11.8742 8.25 12.0001 8.25 12.1554V13.3979C8.25 13.4764 8.28281 13.5513 8.34049 13.6046L12.2089 17.1754C12.2609 17.2234 12.329 17.25 12.3997 17.25H14.3347C14.5907 17.25 14.7136 16.9358 14.5255 16.7621L10.9892 13.4978C12.7821 13.443 14.0629 12.2464 14.231 10.5H15.4688C15.6241 10.5 15.75 10.3741 15.75 10.2188V9.28125C15.75 9.12593 15.6241 9 15.4688 9H14.0932C14.0115 8.72951 13.8991 8.47861 13.7592 8.25H15.4688Z" fill="white"/>
</g>
<defs>
<clipPath id="clip0_382_9911">
<rect width="24" height="24" fill="white"/>
</clipPath>
</defs>
</svg>
