<svg width="24" height="24" viewBox="0 0 24 24" fill="none" xmlns="http://www.w3.org/2000/svg">
<g clip-path="url(#clip0_381_9868)">
<path d="M0 6C0 2.68629 2.68629 0 6 0H18C21.3137 0 24 2.68629 24 6V18C24 21.3137 21.3137 24 18 24H6C2.68629 24 0 21.3137 0 18V6Z" fill="#0C6CF2"/>
<path fill-rule="evenodd" clip-rule="evenodd" d="M15.8 13.8924C15.8 15.4344 14.5484 16.458 12.7004 16.6122V18H11.4344V16.5984C10.1844 16.4575 8.99678 15.9773 8 15.21L8.9312 13.9344C9.761 14.5794 10.5464 15 11.4926 15.1404V12.3924C9.368 11.8596 8.3786 11.0886 8.3786 9.5046C8.3786 7.9908 9.6152 6.9534 11.4344 6.813V6H12.7004V6.8412C13.6899 6.95111 14.6332 7.31852 15.4364 7.9068L14.621 9.2244C13.9808 8.7618 13.3262 8.4672 12.6422 8.3274V10.9908C14.8544 11.5236 15.8 12.3786 15.8 13.8924ZM11.492 10.6962V8.229C10.5758 8.2992 10.0958 8.79 10.0958 9.4068C10.0958 9.9948 10.3718 10.374 11.4926 10.6968L11.492 10.6962ZM14.0828 13.9902C14.0828 13.3602 13.7768 12.9816 12.6422 12.6588V15.1968C13.559 15.126 14.0828 14.6634 14.0828 13.9908V13.9902Z" fill="white"/>
</g>
<defs>
<clipPath id="clip0_381_9868">
<rect width="24" height="24" rx="12" fill="white"/>
</clipPath>
</defs>
</svg>
