<svg width="24" height="24" viewBox="0 0 24 24" fill="none" xmlns="http://www.w3.org/2000/svg">
<g clip-path="url(#clip0_382_9917)">
<path d="M0 6C0 2.68629 2.68629 0 6 0H18C21.3137 0 24 2.68629 24 6V18C24 21.3137 21.3137 24 18 24H6C2.68629 24 0 21.3137 0 18V6Z" fill="#0C6CF2"/>
<g clip-path="url(#clip1_382_9917)">
<path d="M9.53906 11.3281H10.3604C11.1644 11.3281 11.7572 11.1934 12.1387 10.9238C12.5225 10.6582 12.7129 10.2354 12.7129 9.66113C12.7129 9.08691 12.5176 8.68457 12.127 8.44531C11.7363 8.20605 11.1299 8.08398 10.3086 8.08398H9.53906V11.3281ZM9.53906 13.3945V18H7V6H10.4961C12.1237 6 13.3281 6.29687 14.1094 6.89062C14.8906 7.48437 15.2813 8.38542 15.2813 9.59375C15.2906 10.2682 15.0854 10.9282 14.6953 11.4785C14.3138 12.028 13.7669 12.4587 13.0547 12.7705C14.8594 15.4678 16.0352 17.2109 16.582 18H13.7588L10.8965 13.3945H9.53906Z" fill="white"/>
</g>
</g>
<defs>
<clipPath id="clip0_382_9917">
<rect width="24" height="24" fill="white"/>
</clipPath>
<clipPath id="clip1_382_9917">
<rect width="9.58301" height="12" fill="white" transform="translate(7 6)"/>
</clipPath>
</defs>
</svg>
